{
.appVersion = "3151";
.formatVersion = 3;
DisplayStrings = (
"no
n
OH
OHnoOoOooO
OHAno
nonononono
Hheel
on bano
mn
b
u
churn chum
agreeable 
neonoeneooneonoenoeen
f
o
n
t
s
n
i
n
v
e
e

sessionneens sesesooeeoo

oosoossoonnsnnsssnnnoosossS
HAMBURGEFONTSIV  .!, 
abcdefghijklmnopqrstuvwxyz
effective
Ajar adjourn
elected john
cat table etch ethane siiiiiinnnnn
HAOBCDEFGHIJKLMNOPQRSTUVWXYZ








ADHESION
adhesion
UV
POV VOLT
PUTTING
PUB APPLE
PURRRRRRRRR
OHno HOno
Hole
hamburgefontsiv.
ONANA
UN RUM RUN RUB
Onana
VAMOS
nononoonnnonoononnnnnooooo
Horn
job ojuju",
"Eitra Serviamo Semoveo Torse Frataget Roturiers Ore Aguantas Thenabouts Boo Etenemme Veinings Aget Urite Invasori Negotiators Beato Norman Unrotten Mergetur Reintegrate Ahnst Fremituses Raging Refrigerations Orange Hago Ingratis Omia Aasian Fassent Borgo Verrast Nat Bissus Barnum Annan Everett Housuihini Staffroom Etternavnet Tenera Viaggetto Rehears Averso Notis Absents Inseguono Muuttua Tarvitsisi Tear Martinis Morta Shrugging Esausti Vivere Outremer Amar Morgun Betettem Atomises Auratis Tuhosivat Stroma Ansehen Bahs Aoniae Guifre Roberta Brenner Fatue Fronts Huomata Tunnetta Version Misnames Retirement nnBureausnn Rev Rignir Reingressos Avare Moonshines Stoving Seines Gamester Eritrea Naamion Misteriosas Raisonner Grafen Nie Asiento Business Rabato Rieni Tref Tuti Grabar Tatie",

glyphs = (
{
color = 4;
glyphname = A;
lastChange = "2023-11-10 16:38:14 +0000";
layers = (
{
anchors = (
{
name = bottom;
pos = (330,0);
},
{
name = ogonek;
pos = (561,10);
},
{
name = top;
pos = (330,700);
}
);
layerId = m01;
shapes = (
{
closed = 1;
nodes = (
(126,0,l),
(126,54,o),
(127,82,o),
(131,102,cs),
(140,146,o),
(172,155,o),
(329,155,cs),
(486,155,o),
(518,146,o),
(527,102,cs),
(531,82,o),
(532,54,o),
(532,0,c),
(628,0,l),
(601,198,o),
(583,394,o),
(570,700,c),
(88,700,l),
(75,394,o),
(57,198,o),
(30,0,c)
);
},
{
closed = 1;
nodes = (
(243,289,o),
(196,293,o),
(170,304,cs),
(146,314,o),
(136,331,o),
(136,362,cs),
(136,385,o),
(146,402,o),
(166,413,cs),
(194,427,o),
(245,434,o),
(329,434,cs),
(413,434,o),
(464,427,o),
(492,413,cs),
(512,402,o),
(522,385,o),
(522,362,cs),
(522,331,o),
(512,314,o),
(488,304,cs),
(462,293,o),
(415,289,o),
(329,289,cs)
);
}
);
width = 658;
},
{
anchors = (
{
name = bottom;
pos = (297,0);
},
{
name = ogonek;
pos = (495,10);
},
{
name = top;
pos = (297,700);
}
);
layerId = "60D037D9-62E9-4843-B070-F1594CB0B0D1";
shapes = (
{
closed = 1;
nodes = (
(80,0,l),
(84,40,o),
(94,137,o),
(98,179,cs),
(101,207,o),
(114,212,o),
(295,212,cs),
(476,212,o),
(490,207,o),
(493,179,cs),
(497,137,o),
(506,40,o),
(510,0,c),
(534,0,l),
(503,232,o),
(480,468,o),
(465,700,c),
(125,700,l),
(110,468,o),
(87,232,o),
(56,0,c)
);
},
{
closed = 1;
nodes = (
(123,243,o),
(113,246,o),
(113,276,cs),
(113,331,o),
(122,413,o),
(126,466,cs),
(131,526,o),
(136,585,o),
(140,630,cs),
(143,661,o),
(153,663,o),
(295,663,cs),
(437,663,o),
(447,661,o),
(450,630,cs),
(455,588,o),
(461,524,o),
(466,466,cs),
(470,413,o),
(479,331,o),
(479,276,cs),
(479,246,o),
(469,243,o),
(296,243,cs)
);
}
);
width = 590;
}
);
unicode = 65;
},
{
color = 2;
glyphname = B;
lastChange = "2023-11-10 17:11:36 +0000";
layers = (
{
anchors = (
{
name = bottom;
pos = (332,0);
},
{
name = center;
pos = (332,350);
},
{
name = top;
pos = (332,700);
}
);
background = {
shapes = (
{
closed = 1;
nodes = (
(622,-8,o),
(730,121,o),
(730,354,cs),
(730,574,o),
(622,710,o),
(396,710,cs),
(170,710,o),
(62,574,o),
(62,351,cs),
(62,118,o),
(170,-8,o),
(396,-8,cs)
);
},
{
closed = 1;
nodes = (
(163,196,o),
(137,221,o),
(137,273,cs),
(137,325,o),
(158,350,o),
(396,350,cs),
(634,350,o),
(663,325,o),
(663,273,cs),
(663,221,o),
(634,196,o),
(396,196,cs)
);
}
);
};
layerId = m01;
shapes = (
{
closed = 1;
nodes = (
(191,0,o),
(302,0,o),
(410,0,cs),
(499,0,o),
(624,30,o),
(624,193,cs),
(624,290,o),
(579,347,o),
(487,368,c),
(542,375,o),
(580,437,o),
(580,517,cs),
(580,594,o),
(545,696,o),
(414,699,cs),
(292,702,o),
(183,700,o),
(62,701,c),
(66,467,o),
(66,234,o),
(62,0,c)
);
},
{
closed = 1;
nodes = (
(252,192,o),
(196,195,o),
(167,207,cs),
(142,217,o),
(132,236,o),
(132,263,cs),
(132,289,o),
(142,305,o),
(164,316,cs),
(195,332,o),
(250,337,o),
(326,337,cs),
(401,337,o),
(450,332,o),
(479,318,cs),
(502,307,o),
(512,290,o),
(512,262,cs),
(512,240,o),
(506,221,o),
(484,210,cs),
(456,196,o),
(407,192,o),
(324,192,cs)
);
},
{
closed = 1;
nodes = (
(233,381,o),
(192,382,o),
(169,388,cs),
(147,394,o),
(140,404,o),
(140,416,cs),
(140,430,o),
(149,439,o),
(167,444,cs),
(188,450,o),
(232,453,o),
(315,453,cs),
(363,453,o),
(407,452,o),
(434,444,cs),
(454,438,o),
(462,429,o),
(462,415,cs),
(462,404,o),
(457,396,o),
(438,390,cs),
(412,382,o),
(366,381,o),
(300,381,cs)
);
}
);
width = 664;
},
{
anchors = (
{
name = bottom;
pos = (324,0);
},
{
name = center;
pos = (324,350);
},
{
name = top;
pos = (324,700);
}
);
background = {
shapes = (
{
pos = (-4,0);
ref = M;
}
);
};
layerId = "60D037D9-62E9-4843-B070-F1594CB0B0D1";
shapes = (
{
closed = 1;
nodes = (
(149,0,o),
(193,0,o),
(325,0,cs),
(432,0,o),
(557,30,o),
(557,187,cs),
(557,277,o),
(516,337,o),
(428,365,c),
(487,395,o),
(519,455,o),
(520,515,cs),
(521,573,o),
(493,699,o),
(344,699,cs),
(224,699,o),
(211,699,o),
(91,700,c),
(94,466,o),
(93,234,o),
(90,0,c)
);
},
{
closed = 1;
nodes = (
(132,37,o),
(118,38,o),
(114,68,cs),
(111,90,o),
(111,146,o),
(111,194,cs),
(111,236,o),
(111,299,o),
(114,321,cs),
(118,351,o),
(133,351,o),
(241,351,cs),
(402,351,o),
(436,344,o),
(468,322,cs),
(512,292,o),
(534,248,o),
(534,192,cs),
(534,125,o),
(502,84,o),
(473,64,cs),
(435,38,o),
(386,37,o),
(259,37,cs)
);
},
{
closed = 1;
nodes = (
(132,374,o),
(118,374,o),
(114,404,cs),
(111,424,o),
(112,463,o),
(112,518,cs),
(112,573,o),
(111,612,o),
(114,632,cs),
(118,662,o),
(132,662,o),
(241,662,cs),
(393,662,o),
(418,653,o),
(444,632,cs),
(492,594,o),
(497,554,o),
(497,524,cs),
(497,462,o),
(476,427,o),
(439,401,cs),
(399,372,o),
(364,374,o),
(241,374,cs)
);
}
);
width = 614;
}
);
metricLeft = H;
unicode = 66;
},
{
color = 1;
glyphname = C;
lastChange = "2023-11-10 18:13:46 +0000";
layers = (
{
anchors = (
{
name = bottom;
pos = (328,0);
},
{
name = top;
pos = (342,700);
}
);
layerId = m01;
shapes = (
{
closed = 1;
nodes = (
(451,-8,o),
(520,15,o),
(543,24,c),
(543,216,l),
(540,214,o),
(492,196,o),
(345,196,cs),
(142,196,o),
(117,222,o),
(117,276,cs),
(117,322,o),
(136,350,o),
(342,350,cs),
(478,350,o),
(539,334,o),
(543,330,c),
(543,680,l),
(524,688,o),
(486,710,o),
(401,710,cs),
(156,710,o),
(42,597,o),
(42,352,cs),
(42,106,o),
(160,-8,o),
(383,-8,cs)
);
}
);
width = 585;
},
{
anchors = (
{
name = bottom;
pos = (335,0);
},
{
name = top;
pos = (331,700);
}
);
layerId = "60D037D9-62E9-4843-B070-F1594CB0B0D1";
shapes = (
{
closed = 1;
nodes = (
(417,-8,o),
(470,17,o),
(489,27,c),
(489,76,l),
(443,56,o),
(426,34,o),
(331,33,cs),
(97,31,o),
(76,286,o),
(76,351,cs),
(76,467,o),
(136,671,o),
(339,671,cs),
(435,671,o),
(468,648,o),
(489,638,c),
(489,683,l),
(468,692,o),
(440,710,o),
(360,710,cs),
(203,710,o),
(57,597,o),
(57,351,cs),
(57,182,o),
(125,-8,o),
(335,-8,cs)
);
}
);
width = 544;
}
);
metricLeft = O;
metricRight = O;
unicode = 67;
},
{
color = 2;
glyphname = D;
lastChange = "2023-11-10 16:59:19 +0000";
layers = (
{
anchors = (
{
name = bottom;
pos = (342,0);
},
{
name = center;
pos = (342,350);
},
{
name = top;
pos = (342,700);
}
);
background = {
shapes = (
{
closed = 1;
nodes = (
(632,-8,o),
(740,121,o),
(740,354,cs),
(740,574,o),
(632,710,o),
(406,710,cs),
(180,710,o),
(72,574,o),
(72,351,cs),
(72,118,o),
(180,-8,o),
(406,-8,cs)
);
},
{
closed = 1;
nodes = (
(173,196,o),
(147,221,o),
(147,273,cs),
(147,325,o),
(168,350,o),
(406,350,cs),
(644,350,o),
(673,325,o),
(673,273,cs),
(673,221,o),
(644,196,o),
(406,196,cs)
);
}
);
};
layerId = m01;
shapes = (
{
closed = 1;
nodes = (
(171,0,o),
(254,0,o),
(318,0,cs),
(444,0,o),
(505,15,o),
(537,38,cs),
(569,61,o),
(625,102,o),
(625,349,cs),
(625,598,o),
(581,629,o),
(541,657,cs),
(499,686,o),
(443,700,o),
(311,700,cs),
(248,700,o),
(167,700,o),
(62,700,c),
(72,469,o),
(72,231,o),
(62,0,c)
);
},
{
closed = 1;
nodes = (
(253,204,o),
(192,209,o),
(163,231,cs),
(139,249,o),
(136,281,o),
(136,318,cs),
(136,361,o),
(140,391,o),
(163,408,cs),
(193,430,o),
(262,434,o),
(346,434,cs),
(422,434,o),
(498,431,o),
(528,406,cs),
(550,388,o),
(554,352,o),
(554,321,cs),
(554,280,o),
(547,249,o),
(525,231,cs),
(497,208,o),
(435,204,o),
(349,204,cs)
);
}
);
width = 667;
},
{
anchors = (
{
name = bottom;
pos = (334,0);
},
{
name = center;
pos = (334,350);
},
{
name = top;
pos = (334,700);
}
);
layerId = "60D037D9-62E9-4843-B070-F1594CB0B0D1";
shapes = (
{
closed = 1;
nodes = (
(188,0,o),
(260,1,o),
(313,1,cs),
(402,1,o),
(429,7,o),
(459,21,cs),
(514,46,o),
(560,102,o),
(560,354,cs),
(560,597,o),
(517,633,o),
(479,660,cs),
(449,681,o),
(405,700,o),
(304,700,cs),
(252,700,o),
(183,700,o),
(90,700,c),
(94,468,o),
(94,232,o),
(90,0,c)
);
},
{
closed = 1;
nodes = (
(118,37,o),
(117,34,o),
(115,123,cs),
(114,156,o),
(113,257,o),
(113,350,cs),
(113,394,o),
(114,562,o),
(116,597,cs),
(119,661,o),
(119,661,o),
(286,661,cs),
(336,661,o),
(424,665,o),
(475,620,cs),
(536,567,o),
(540,413,o),
(540,358,cs),
(540,314,o),
(535,140,o),
(485,84,cs),
(444,38,o),
(368,37,o),
(292,37,cs)
);
}
);
width = 615;
}
);
metricLeft = H;
metricRight = O;
unicode = 68;
},
{
color = 1;
glyphname = E;
lastChange = "2023-11-10 16:59:19 +0000";
layers = (
{
anchors = (
{
name = bottom;
pos = (363,0);
},
{
name = ogonek;
pos = (603,10);
},
{
name = top;
pos = (363,700);
},
{
name = topleft;
pos = (83,700);
}
);
background = {
shapes = (
{
pos = (-2,0);
ref = M;
}
);
};
layerId = "60D037D9-62E9-4843-B070-F1594CB0B0D1";
shapes = (
{
closed = 1;
nodes = (
(499,0,l),
(499,37,l),
(445,37,o),
(354,36,o),
(276,36,cs),
(120,36,o),
(121,36,o),
(114,66,cs),
(111,79,o),
(112,139,o),
(112,191,cs),
(112,236,o),
(111,303,o),
(114,316,cs),
(121,347,o),
(122,346,o),
(276,347,cs),
(409,348,o),
(434,347,o),
(491,346,c),
(491,381,l),
(434,380,o),
(409,380,o),
(276,379,cs),
(122,378,o),
(123,378,o),
(116,408,cs),
(113,421,o),
(112,499,o),
(112,521,cs),
(112,543,o),
(113,620,o),
(116,633,cs),
(123,663,o),
(122,663,o),
(276,663,cs),
(354,663,o),
(448,663,o),
(498,663,c),
(499,700,l),
(90,700,l),
(93,466,o),
(93,234,o),
(90,0,c)
);
}
);
width = 579;
},
{
anchors = (
{
name = bottom;
pos = (332,0);
},
{
name = ogonek;
pos = (572,10);
},
{
name = top;
pos = (332,700);
},
{
name = topleft;
pos = (52,700);
}
);
layerId = m01;
shapes = (
{
closed = 1;
nodes = (
(580,0,l),
(575,197,l),
(565,194,o),
(441,192,o),
(323,192,cs),
(242,192,o),
(201,195,o),
(173,202,cs),
(150,209,o),
(139,220,o),
(139,238,cs),
(139,255,o),
(149,265,o),
(171,272,cs),
(201,281,o),
(247,286,o),
(308,286,cs),
(359,286,o),
(552,283,o),
(568,282,c),
(568,361,l),
(546,360,o),
(336,357,o),
(280,357,cs),
(228,357,o),
(197,360,o),
(176,366,cs),
(156,372,o),
(147,382,o),
(147,398,cs),
(147,414,o),
(156,425,o),
(175,431,cs),
(198,439,o),
(237,442,o),
(300,442,cs),
(451,442,o),
(568,441,o),
(575,439,c),
(580,700,l),
(62,700,l),
(66,466,o),
(66,234,o),
(62,0,c)
);
}
);
width = 620;
}
);
metricLeft = H;
unicode = 69;
},
{
color = 1;
glyphname = F;
lastChange = "2023-11-10 16:59:19 +0000";
layers = (
{
anchors = (
{
name = bottom;
pos = (318,0);
},
{
name = top;
pos = (318,700);
}
);
background = {
shapes = (
{
closed = 1;
nodes = (
(70,467,o),
(70,233,o),
(62,0,c),
(176,0,l),
(151,322,o),
(121,379,o),
(221,379,cs),
(344,379,o),
(348,264,o),
(422,0,c),
(587,0,l),
(579,233,o),
(579,467,o),
(587,700,c),
(473,700,l),
(497,324,o),
(502,300,o),
(455,300,cs),
(393,300,o),
(383,325,o),
(293,700,c),
(62,700,l)
);
}
);
};
layerId = m01;
shapes = (
{
closed = 1;
nodes = (
(168,0,l),
(162,83,o),
(158,175,o),
(158,207,cs),
(158,271,o),
(194,279,o),
(323,279,cs),
(410,279,o),
(450,278,o),
(576,275,c),
(576,354,l),
(361,350,o),
(365,350,o),
(305,350,cs),
(223,350,o),
(199,352,o),
(176,359,cs),
(156,365,o),
(147,377,o),
(147,396,cs),
(147,413,o),
(156,425,o),
(175,431,cs),
(201,440,o),
(245,444,o),
(303,444,cs),
(334,444,o),
(442,443,o),
(580,441,c),
(580,699,l),
(62,701,l),
(66,467,o),
(66,234,o),
(62,0,c)
);
}
);
width = 616;
},
{
anchors = (
{
name = bottom;
pos = (311,0);
},
{
name = top;
pos = (311,700);
}
);
background = {
shapes = (
{
pos = (11,0);
ref = E;
}
);
};
layerId = "60D037D9-62E9-4843-B070-F1594CB0B0D1";
shapes = (
{
closed = 1;
nodes = (
(120,0,l),
(112,124,o),
(114,242,o),
(115,260,cs),
(117,330,o),
(122,332,o),
(284,330,cs),
(359,329,o),
(335,329,o),
(489,328,c),
(489,360,l),
(335,359,o),
(359,358,o),
(284,357,cs),
(126,355,o),
(121,356,o),
(117,379,cs),
(116,387,o),
(112,449,o),
(112,506,cs),
(112,563,o),
(112,628,o),
(115,636,cs),
(121,653,o),
(128,663,o),
(282,663,cs),
(310,663,o),
(345,663,o),
(496,663,c),
(497,700,l),
(90,701,l),
(94,467,o),
(94,234,o),
(90,0,c)
);
}
);
width = 555;
}
);
metricLeft = H;
unicode = 70;
},
{
color = 1;
glyphname = G;
lastChange = "2023-11-10 16:59:19 +0000";
layers = (
{
layerId = m01;
shapes = (
{
closed = 1;
nodes = (
(453,-8,o),
(508,7,o),
(543,32,c),
(544,138,o),
(547,218,o),
(551,295,c),
(447,295,l),
(455,264,o),
(458,212,o),
(452,210,cs),
(422,201,o),
(386,196,o),
(345,196,cs),
(166,196,o),
(117,213,o),
(117,276,cs),
(117,333,o),
(169,350,o),
(342,350,cs),
(431,350,o),
(529,340,o),
(543,330,c),
(543,680,l),
(512,699,o),
(457,710,o),
(397,710,cs),
(156,710,o),
(42,597,o),
(42,352,cs),
(42,107,o),
(155,-8,o),
(394,-8,cs)
);
}
);
width = 601;
},
{
background = {
shapes = (
{
pos = (-22,0);
ref = C;
}
);
};
layerId = "60D037D9-62E9-4843-B070-F1594CB0B0D1";
shapes = (
{
closed = 1;
nodes = (
(385,-7,o),
(454,4,o),
(489,27,c),
(489,133,o),
(489,170,o),
(492,247,c),
(454,247,l),
(466,170,o),
(469,61,o),
(462,57,cs),
(433,40,o),
(367,30,o),
(326,30,cs),
(147,30,o),
(76,197,o),
(78,364,cs),
(79,421,o),
(109,673,o),
(341,673,cs),
(430,673,o),
(476,640,o),
(490,632,c),
(491,682,l),
(460,699,o),
(404,710,o),
(344,710,cs),
(200,710,o),
(57,597,o),
(57,352,cs),
(57,135,o),
(161,-7,o),
(326,-7,cs)
);
}
);
width = 556;
}
);
metricLeft = C;
unicode = 71;
},
{
color = 5;
glyphname = H;
lastChange = "2023-11-10 16:38:14 +0000";
layers = (
{
anchors = (
{
name = bottom;
pos = (366,0);
},
{
name = center;
pos = (366,350);
},
{
name = top;
pos = (366,700);
},
{
name = topleft;
pos = (30,700);
}
);
layerId = m01;
shapes = (
{
closed = 1;
nodes = (
(164,0,l),
(159,78,o),
(159,89,o),
(159,119,cs),
(159,209,o),
(182,220,o),
(366,220,cs),
(550,220,o),
(573,209,o),
(573,119,cs),
(573,89,o),
(573,78,o),
(568,0,c),
(670,0,l),
(660,233,o),
(660,467,o),
(670,700,c),
(568,700,l),
(573,581,ls),
(575,533,o),
(555,528,o),
(366,528,cs),
(177,528,o),
(157,533,o),
(159,581,cs),
(164,700,l),
(62,700,l),
(72,467,o),
(72,233,o),
(62,0,c)
);
}
);
width = 732;
},
{
anchors = (
{
name = bottom;
pos = (315,0);
},
{
name = center;
pos = (315,350);
},
{
name = top;
pos = (315,700);
},
{
name = topleft;
pos = (34,700);
}
);
layerId = "60D037D9-62E9-4843-B070-F1594CB0B0D1";
shapes = (
{
closed = 1;
nodes = (
(117,0,l),
(115,81,o),
(115,110,o),
(115,296,cs),
(115,327,o),
(128,329,o),
(315,329,cs),
(502,329,o),
(515,327,o),
(515,296,cs),
(515,110,o),
(515,81,o),
(513,0,c),
(540,0,l),
(537,233,o),
(537,467,o),
(540,700,c),
(513,700,l),
(515,399,ls),
(515,368,o),
(502,366,o),
(315,366,cs),
(128,366,o),
(115,368,o),
(115,399,cs),
(117,700,l),
(90,700,l),
(93,467,o),
(93,233,o),
(90,0,c)
);
}
);
width = 630;
}
);
unicode = 72;
},
{
color = 4;
glyphname = I;
lastChange = "2023-11-10 17:14:41 +0000";
layers = (
{
anchors = (
{
name = bottom;
pos = (239,0);
},
{
name = ogonek;
pos = (435,0);
},
{
name = top;
pos = (239,700);
},
{
name = topleft;
pos = (12,700);
}
);
layerId = m01;
shapes = (
{
closed = 1;
nodes = (
(435,0,l),
(435,193,l),
(374,193,o),
(328,197,o),
(302,204,cs),
(281,212,o),
(275,239,o),
(275,329,cs),
(275,411,o),
(281,436,o),
(302,444,cs),
(328,451,o),
(374,455,o),
(435,455,c),
(435,699,l),
(42,699,l),
(42,455,l),
(103,455,o),
(149,451,o),
(175,444,cs),
(196,436,o),
(202,411,o),
(202,329,cs),
(202,239,o),
(196,212,o),
(175,204,cs),
(149,197,o),
(103,193,o),
(42,193,c),
(42,0,l)
);
}
);
width = 477;
},
{
anchors = (
{
name = bottom;
pos = (196,0);
},
{
name = ogonek;
pos = (357,0);
},
{
name = top;
pos = (196,700);
},
{
name = topleft;
pos = (-26,700);
}
);
layerId = "60D037D9-62E9-4843-B070-F1594CB0B0D1";
shapes = (
{
closed = 1;
nodes = (
(336,0,l),
(336,34,l),
(253,34,o),
(237,35,o),
(225,41,cs),
(208,49,o),
(206,68,o),
(206,258,cs),
(206,645,o),
(206,645,o),
(233,655,cs),
(260,663,o),
(286,666,o),
(336,666,c),
(336,699,l),
(57,699,l),
(57,666,l),
(107,666,o),
(133,663,o),
(160,655,cs),
(187,645,o),
(187,645,o),
(187,258,cs),
(187,68,o),
(185,49,o),
(168,41,cs),
(156,35,o),
(140,34,o),
(57,34,c),
(57,0,l)
);
}
);
width = 391;
}
);
metricLeft = O;
metricRight = O;
unicode = 73;
},
{
color = 1;
glyphname = J;
lastChange = "2023-11-10 17:14:41 +0000";
layers = (
{
anchors = (
{
name = bottom;
pos = (271,0);
},
{
name = top;
pos = (271,700);
}
);
layerId = m01;
shapes = (
{
closed = 1;
nodes = (
(329,-16,o),
(381,43,o),
(381,190,cs),
(381,399,ls),
(381,423,o),
(389,434,o),
(408,441,cs),
(428,447,o),
(465,452,o),
(521,452,c),
(521,700,l),
(107,700,l),
(107,452,l),
(193,452,o),
(250,450,o),
(281,441,cs),
(300,434,o),
(308,423,o),
(308,399,cs),
(308,279,ls),
(308,222,o),
(299,196,o),
(229,196,cs),
(90,196,o),
(65,206,o),
(42,216,c),
(42,14,l),
(69,4,o),
(105,-16,o),
(221,-16,cs)
);
}
);
width = 563;
},
{
anchors = (
{
name = bottom;
pos = (258,0);
},
{
name = top;
pos = (258,700);
}
);
layerId = "60D037D9-62E9-4843-B070-F1594CB0B0D1";
shapes = (
{
closed = 1;
nodes = (
(251,-16,o),
(291,28,o),
(291,190,cs),
(291,615,ls),
(291,639,o),
(299,650,o),
(318,657,cs),
(338,663,o),
(352,668,o),
(408,668,c),
(408,700,l),
(138,700,l),
(138,668,l),
(219,668,o),
(237,662,o),
(249,657,cs),
(269,649,o),
(270,639,o),
(270,615,cs),
(270,185,ls),
(270,156,o),
(271,21,o),
(172,21,cs),
(122,21,o),
(89,30,o),
(57,42,c),
(57,3,l),
(84,-4,o),
(117,-16,o),
(154,-16,cs)
);
}
);
width = 463;
}
);
metricLeft = O;
metricRight = O;
unicode = 74;
},
{
color = 9;
glyphname = K;
lastChange = "2023-11-10 20:07:58 +0000";
layers = (
{
anchors = (
{
name = bottom;
pos = (358,0);
},
{
name = top;
pos = (358,700);
}
);
background = {
shapes = (
{
pos = (8,0);
ref = R;
}
);
};
layerId = m01;
shapes = (
{
closed = 1;
nodes = (
(573,-10,o),
(614,-6,o),
(658,0,c),
(658,275,l),
(349,280,o),
(299,328,o),
(299,349,cs),
(299,370,o),
(349,381,o),
(393,392,cs),
(576,439,o),
(621,442,o),
(642,630,cs),
(650,700,l),
(406,700,l),
(387,513,o),
(417,491,o),
(273,491,cs),
(175,491,o),
(161,497,o),
(160,541,cs),
(160,560,o),
(164,642,o),
(164,700,c),
(62,700,l),
(68,467,o),
(68,233,o),
(62,0,c),
(164,0,l),
(160,75,o),
(156,126,o),
(156,186,cs),
(156,211,o),
(153,232,o),
(160,245,cs),
(165,254,o),
(176,259,o),
(197,259,cs),
(212,259,o),
(222,253,o),
(228,244,cs),
(237,233,o),
(241,217,o),
(245,202,cs),
(280,59,o),
(368,-10,o),
(537,-10,cs)
);
}
);
width = 706;
},
{
anchors = (
{
name = bottom;
pos = (352,0);
},
{
name = top;
pos = (352,700);
}
);
background = {
shapes = (
{
pos = (9,0);
ref = R;
}
);
};
layerId = "60D037D9-62E9-4843-B070-F1594CB0B0D1";
shapes = (
{
closed = 1;
nodes = (
(568,-7,o),
(571,-7,o),
(573,-7,c),
(573,31,l),
(392,26,o),
(305,104,o),
(258,313,cs),
(251,343,o),
(252,347,o),
(337,359,cs),
(415,370,o),
(489,402,o),
(525,630,cs),
(536,700,l),
(502,700,l),
(469,442,o),
(447,372,o),
(233,372,cs),
(128,372,o),
(122,383,o),
(117,422,cs),
(115,441,o),
(117,642,o),
(117,700,c),
(90,700,l),
(96,467,o),
(96,233,o),
(90,0,c),
(119,0,l),
(118,75,o),
(115,126,o),
(117,186,cs),
(119,266,o),
(117,309,o),
(119,330,cs),
(125,350,o),
(139,350,o),
(192,350,cs),
(223,350,o),
(231,348,o),
(236,328,cs),
(240,311,o),
(245,268,o),
(272,189,cs),
(316,59,o),
(405,-8,o),
(566,-7,cs)
);
}
);
width = 633;
}
);
metricLeft = H;
unicode = 75;
},
{
color = 1;
glyphname = L;
lastChange = "2023-11-10 17:14:41 +0000";
layers = (
{
anchors = (
{
name = bottom;
pos = (265,0);
},
{
name = center;
pos = (265,350);
},
{
name = top;
pos = (265,700);
},
{
name = topright;
pos = (469,700);
}
);
layerId = m01;
shapes = (
{
closed = 1;
nodes = (
(477,0,l),
(473,88,o),
(473,176,o),
(477,264,c),
(380,261,ls),
(348,260,o),
(311,259,o),
(281,259,cs),
(163,259,o),
(150,275,o),
(150,332,cs),
(150,363,o),
(154,482,o),
(168,701,c),
(62,701,l),
(64,584,o),
(65,467,o),
(65,351,cs),
(65,234,o),
(64,117,o),
(62,0,c)
);
}
);
width = 513;
},
{
anchors = (
{
name = bottom;
pos = (259,0);
},
{
name = center;
pos = (259,350);
},
{
name = top;
pos = (259,700);
},
{
name = topright;
pos = (539,700);
}
);
layerId = "60D037D9-62E9-4843-B070-F1594CB0B0D1";
shapes = (
{
closed = 1;
nodes = (
(398,0,l),
(397,28,o),
(397,9,o),
(398,39,c),
(301,36,ls),
(269,35,o),
(232,34,o),
(202,34,cs),
(133,34,o),
(115,50,o),
(114,145,cs),
(114,176,o),
(111,482,o),
(120,701,c),
(90,701,l),
(92,584,o),
(93,467,o),
(93,351,cs),
(93,234,o),
(92,117,o),
(90,0,c)
);
}
);
width = 456;
}
);
metricLeft = H;
metricRight = F;
unicode = 76;
},
{
color = 4;
glyphname = M;
lastChange = "2023-11-10 16:44:28 +0000";
layers = (
{
anchors = (
{
name = bottom;
pos = (421,0);
},
{
name = top;
pos = (421,700);
}
);
background = {
shapes = (
{
pos = (62,0);
ref = H;
}
);
};
layerId = m01;
shapes = (
{
closed = 1;
nodes = (
(172,0,l),
(156,97,o),
(147,182,o),
(147,249,cs),
(147,283,o),
(153,305,o),
(166,316,cs),
(176,326,o),
(192,329,o),
(227,329,cs),
(266,329,o),
(287,324,o),
(301,312,cs),
(328,286,o),
(333,263,o),
(369,0,c),
(473,0,l),
(509,263,o),
(514,286,o),
(541,312,cs),
(555,324,o),
(576,329,o),
(615,329,cs),
(650,329,o),
(666,326,o),
(676,316,cs),
(689,305,o),
(695,283,o),
(695,249,cs),
(695,182,o),
(686,97,o),
(670,0,c),
(780,0,l),
(776,117,o),
(774,233,o),
(774,350,cs),
(774,467,o),
(776,584,o),
(780,700,c),
(482,700,l),
(464,363,o),
(462,353,o),
(421,353,cs),
(380,353,o),
(378,363,o),
(360,700,c),
(62,700,l),
(66,584,o),
(68,467,o),
(68,350,cs),
(68,233,o),
(66,117,o),
(62,0,c)
);
}
);
width = 842;
},
{
anchors = (
{
name = bottom;
pos = (390,0);
},
{
name = top;
pos = (390,700);
}
);
layerId = "60D037D9-62E9-4843-B070-F1594CB0B0D1";
shapes = (
{
closed = 1;
nodes = (
(116,0,l),
(111,207,o),
(115,350,o),
(115,447,cs),
(115,564,o),
(114,619,o),
(117,632,cs),
(123,661,o),
(132,662,o),
(191,662,cs),
(229,662,o),
(242,654,o),
(247,632,cs),
(265,546,o),
(319,258,o),
(346,134,c),
(434,134,l),
(461,258,o),
(515,546,o),
(533,632,cs),
(538,654,o),
(551,662,o),
(589,662,cs),
(648,662,o),
(657,658,o),
(663,632,cs),
(666,619,o),
(665,564,o),
(665,447,cs),
(665,350,o),
(669,207,o),
(664,0,c),
(693,0,l),
(691,117,o),
(688,233,o),
(688,350,cs),
(688,467,o),
(691,584,o),
(692,700,c),
(524,700,l),
(425,171,o),
(425,171,o),
(390,171,cs),
(355,171,o),
(355,171,o),
(256,700,c),
(91,700,l),
(93,584,o),
(91,467,o),
(91,350,cs),
(91,233,o),
(92,117,o),
(90,0,c)
);
}
);
width = 783;
}
);
metricLeft = H;
metricRight = H;
unicode = 77;
},
{
color = 4;
glyphname = N;
lastChange = "2023-11-10 17:14:41 +0000";
layers = (
{
anchors = (
{
name = bottom;
pos = (318,0);
},
{
name = top;
pos = (318,700);
}
);
layerId = m01;
shapes = (
{
closed = 1;
nodes = (
(162,0,l),
(152,102,o),
(148,157,o),
(148,209,cs),
(148,251,o),
(152,280,o),
(160,297,cs),
(172,320,o),
(190,329,o),
(225,329,cs),
(266,329,o),
(293,319,o),
(316,296,cs),
(349,263,o),
(359,239,o),
(440,0,c),
(607,0,l),
(603,280,o),
(603,420,o),
(607,700,c),
(507,700,l),
(521,542,o),
(520,554,o),
(520,515,cs),
(520,422,o),
(511,403,o),
(468,403,cs),
(443,403,o),
(421,416,o),
(405,441,cs),
(373,492,o),
(348,554,o),
(303,700,c),
(62,700,l),
(66,420,o),
(66,280,o),
(62,0,c)
);
}
);
width = 669;
},
{
anchors = (
{
name = bottom;
pos = (329,0);
},
{
name = top;
pos = (329,700);
}
);
layerId = "60D037D9-62E9-4843-B070-F1594CB0B0D1";
shapes = (
{
closed = 1;
nodes = (
(117,0,l),
(114,111,o),
(115,213,o),
(115,312,cs),
(115,450,o),
(117,553,o),
(121,610,cs),
(123,651,o),
(131,662,o),
(186,662,cs),
(235,662,o),
(250,654,o),
(262,611,cs),
(308,451,o),
(332,360,o),
(439,0,c),
(579,0,l),
(575,317,o),
(578,351,o),
(579,700,c),
(550,700,l),
(555,362,o),
(552,197,o),
(552,101,cs),
(552,57,o),
(549,35,o),
(517,35,cs),
(468,35,o),
(455,39,o),
(439,87,cs),
(402,198,o),
(319,500,o),
(263,700,c),
(94,700,l),
(97,502,o),
(90,198,o),
(90,0,c)
);
}
);
width = 669;
}
);
metricLeft = H;
metricRight = H;
unicode = 78;
},
{
color = 5;
glyphname = O;
lastChange = "2023-11-10 16:38:14 +0000";
layers = (
{
layerId = m01;
shapes = (
{
closed = 1;
nodes = (
(566,-8,o),
(652,93,o),
(652,348,cs),
(652,606,o),
(565,710,o),
(347,710,cs),
(129,710,o),
(42,606,o),
(42,348,cs),
(42,93,o),
(128,-8,o),
(347,-8,cs)
);
},
{
closed = 1;
nodes = (
(181,196,o),
(117,220,o),
(117,280,cs),
(117,334,o),
(168,350,o),
(347,350,cs),
(526,350,o),
(577,334,o),
(577,280,cs),
(577,220,o),
(513,196,o),
(347,196,cs)
);
}
);
width = 694;
},
{
layerId = "60D037D9-62E9-4843-B070-F1594CB0B0D1";
shapes = (
{
closed = 1;
nodes = (
(488,-16,o),
(579,111,o),
(579,350,cs),
(579,589,o),
(488,716,o),
(318,716,cs),
(148,716,o),
(57,589,o),
(57,350,cs),
(57,111,o),
(148,-16,o),
(318,-16,cs)
);
},
{
closed = 1;
nodes = (
(165,23,o),
(77,140,o),
(77,350,cs),
(77,560,o),
(165,677,o),
(318,677,cs),
(471,677,o),
(559,560,o),
(559,350,cs),
(559,140,o),
(471,23,o),
(318,23,cs)
);
}
);
width = 634;
}
);
unicode = 79;
},
{
color = 0;
glyphname = P;
lastChange = "2023-11-10 17:00:43 +0000";
layers = (
{
anchors = (
{
name = bottom;
pos = (310,0);
},
{
name = top;
pos = (310,700);
}
);
background = {
shapes = (
{
pos = (10,0);
ref = A;
}
);
};
layerId = m01;
shapes = (
{
closed = 1;
nodes = (
(177,0,l),
(171,61,o),
(164,111,o),
(161,172,cs),
(156,274,o),
(213,264,o),
(316,264,cs),
(414,264,o),
(626,245,o),
(626,478,cs),
(626,659,o),
(509,698,o),
(413,699,cs),
(65,701,l),
(68,350,ls),
(69,233,o),
(66,117,o),
(62,0,c)
);
},
{
closed = 1;
nodes = (
(244,329,o),
(207,332,o),
(182,341,cs),
(162,349,o),
(151,364,o),
(151,384,cs),
(151,405,o),
(161,419,o),
(180,427,cs),
(207,437,o),
(255,442,o),
(325,442,cs),
(414,442,o),
(446,439,o),
(471,427,cs),
(491,419,o),
(501,405,o),
(501,384,cs),
(501,366,o),
(493,352,o),
(475,344,cs),
(450,332,o),
(411,329,o),
(325,329,cs)
);
}
);
width = 662;
},
{
anchors = (
{
name = bottom;
pos = (312,0);
},
{
name = top;
pos = (312,700);
}
);
layerId = "60D037D9-62E9-4843-B070-F1594CB0B0D1";
shapes = (
{
closed = 1;
nodes = (
(118,0,l),
(115,61,o),
(114,111,o),
(115,172,cs),
(117,262,o),
(146,262,o),
(299,262,cs),
(453,262,o),
(588,298,o),
(588,478,cs),
(588,659,o),
(469,698,o),
(373,699,cs),
(93,701,l),
(95,350,ls),
(96,233,o),
(94,117,o),
(90,0,c)
);
},
{
closed = 1;
nodes = (
(128,293,o),
(128,285,o),
(121,350,cs),
(119,371,o),
(118,451,o),
(118,472,cs),
(118,493,o),
(118,577,o),
(120,598,cs),
(125,663,o),
(125,663,o),
(299,663,cs),
(443,663,o),
(496,643,o),
(527,603,cs),
(553,570,o),
(566,523,o),
(566,472,cs),
(566,421,o),
(552,381,o),
(522,349,cs),
(473,297,o),
(385,293,o),
(299,293,cs)
);
}
);
width = 646;
}
);
metricLeft = H;
metricRight = F;
unicode = 80;
},
{
color = 1;
glyphname = Q;
lastChange = "2023-11-10 17:00:57 +0000";
layers = (
{
anchors = (
{
name = bottom;
pos = (300,0);
},
{
name = top;
pos = (300,700);
}
);
background = {
shapes = (
{
closed = 1;
nodes = (
(537,-8,o),
(642,115,o),
(642,349,cs),
(642,584,o),
(536,710,o),
(338,710,cs),
(140,710,o),
(34,584,o),
(34,348,cs),
(34,114,o),
(138,-8,o),
(337,-8,cs)
);
},
{
closed = 1;
nodes = (
(139,196,o),
(109,207,o),
(109,280,cs),
(109,342,o),
(135,350,o),
(341,350,cs),
(548,350,o),
(575,342,o),
(575,280,cs),
(575,208,o),
(542,196,o),
(339,196,cs)
);
},
{
closed = 1;
nodes = (
(332,17,l),
(335,-28,o),
(343,-98,o),
(382,-160,cs),
(428,-234,o),
(520,-253,o),
(581,-253,cs),
(614,-253,o),
(676,-252,o),
(701,-238,c),
(701,-10,l),
(679,-18,o),
(596,-32,o),
(548,-32,cs),
(475,-32,o),
(412,-11,o),
(410,19,c)
);
}
);
};
layerId = m01;
shapes = (
{
closed = 1;
nodes = (
(581,-271,o),
(643,-270,o),
(668,-256,c),
(668,-28,l),
(646,-36,o),
(564,-50,o),
(516,-50,cs),
(449,-50,o),
(404,-32,o),
(395,-6,c),
(579,9,o),
(652,113,o),
(652,348,cs),
(652,606,o),
(565,710,o),
(347,710,cs),
(129,710,o),
(42,606,o),
(42,348,cs),
(42,112,o),
(115,8,o),
(300,-6,c),
(303,-50,o),
(315,-107,o),
(352,-166,cs),
(398,-240,o),
(487,-271,o),
(548,-271,cs)
);
},
{
closed = 1;
nodes = (
(181,196,o),
(117,220,o),
(117,280,cs),
(117,334,o),
(168,350,o),
(347,350,cs),
(526,350,o),
(577,334,o),
(577,280,cs),
(577,220,o),
(513,196,o),
(347,196,cs)
);
}
);
width = 704;
},
{
anchors = (
{
name = bottom;
pos = (300,0);
},
{
name = top;
pos = (300,700);
}
);
layerId = "60D037D9-62E9-4843-B070-F1594CB0B0D1";
shapes = (
{
closed = 1;
nodes = (
(569,-259,o),
(585,-258,o),
(604,-249,c),
(604,-221,l),
(582,-226,o),
(526,-236,o),
(481,-224,cs),
(382,-197,o),
(340,-117,o),
(319,-16,c),
(488,-15,o),
(579,112,o),
(579,350,cs),
(579,589,o),
(488,716,o),
(318,716,cs),
(148,716,o),
(57,589,o),
(57,350,cs),
(57,120,o),
(141,-6,o),
(298,-15,c),
(307,-56,o),
(320,-116,o),
(346,-161,cs),
(394,-242,o),
(483,-266,o),
(548,-261,cs)
);
},
{
closed = 1;
nodes = (
(165,23,o),
(77,140,o),
(77,350,cs),
(77,560,o),
(165,677,o),
(318,677,cs),
(471,677,o),
(559,560,o),
(559,350,cs),
(559,140,o),
(471,23,o),
(318,23,cs)
);
}
);
width = 634;
}
);
metricLeft = O;
unicode = 81;
},
{
color = 3;
glyphname = R;
lastChange = "2023-11-13 15:21:18 +0000";
layers = (
{
background = {
shapes = (
{
pos = (8,0);
ref = K;
}
);
};
layerId = "60D037D9-62E9-4843-B070-F1594CB0B0D1";
shapes = (
{
closed = 1;
nodes = (
(518,-5,o),
(539,-5,o),
(558,4,c),
(558,32,l),
(536,27,o),
(484,21,o),
(439,34,cs),
(342,62,o),
(293,152,o),
(274,261,c),
(457,263,o),
(582,297,o),
(582,478,cs),
(582,659,o),
(465,698,o),
(369,699,cs),
(93,701,l),
(96,350,ls),
(97,233,o),
(94,117,o),
(90,0,c),
(118,0,l),
(115,61,o),
(114,111,o),
(115,172,cs),
(117,262,o),
(124,262,o),
(253,262,c),
(261,217,o),
(274,165,o),
(307,102,cs),
(343,34,o),
(431,-5,o),
(497,-5,cs)
);
},
{
closed = 1;
nodes = (
(124,296,o),
(122,295,o),
(117,346,cs),
(115,367,o),
(114,451,o),
(114,472,cs),
(114,493,o),
(114,573,o),
(116,594,cs),
(121,659,o),
(121,662,o),
(295,663,cs),
(439,664,o),
(492,643,o),
(523,603,cs),
(549,570,o),
(560,529,o),
(560,478,cs),
(560,427,o),
(548,385,o),
(518,353,cs),
(471,303,o),
(381,296,o),
(295,296,cs)
);
}
);
width = 637;
},
{
background = {
shapes = (
{
pos = (10,0);
ref = K;
}
);
};
layerId = m01;
shapes = (
{
closed = 1;
nodes = (
(520,-8,o),
(582,-7,o),
(607,7,c),
(607,235,l),
(585,227,o),
(502,213,o),
(454,213,cs),
(381,213,o),
(334,234,o),
(332,264,c),
(502,268,o),
(626,282,o),
(626,478,cs),
(626,659,o),
(509,698,o),
(413,699,cs),
(65,701,l),
(68,350,ls),
(69,233,o),
(66,117,o),
(62,0,c),
(177,0,l),
(171,61,o),
(164,111,o),
(161,172,cs),
(158,238,o),
(170,257,o),
(238,262,c),
(241,217,o),
(252,159,o),
(291,97,cs),
(337,23,o),
(426,-8,o),
(487,-8,cs)
);
},
{
closed = 1;
nodes = (
(244,329,o),
(207,332,o),
(182,341,cs),
(162,349,o),
(151,364,o),
(151,384,cs),
(151,405,o),
(161,419,o),
(180,427,cs),
(207,437,o),
(255,442,o),
(325,442,cs),
(414,442,o),
(446,439,o),
(471,427,cs),
(491,419,o),
(501,405,o),
(501,384,cs),
(501,366,o),
(493,352,o),
(475,344,cs),
(450,332,o),
(411,329,o),
(325,329,cs)
);
}
);
width = 668;
}
);
metricLeft = H;
metricRight = O;
unicode = 82;
},
{
color = 9;
glyphname = S;
lastChange = "2023-11-10 20:07:30 +0000";
layers = (
{
anchors = (
{
name = bottom;
pos = (278,-8);
},
{
name = top;
pos = (278,700);
}
);
background = {
shapes = (
{
closed = 1;
nodes = (
(448,-1,o),
(524,55,o),
(524,182,cs),
(524,303,o),
(420,340,o),
(334,363,cs),
(273,380,o),
(220,390,o),
(220,419,cs),
(220,435,o),
(238,445,o),
(310,447,cs),
(381,449,o),
(453,447,o),
(524,446,c),
(524,696,l),
(457,702,o),
(390,702,o),
(323,702,cs),
(148,702,o),
(42,618,o),
(42,479,cs),
(42,355,o),
(138,318,o),
(232,297,cs),
(292,284,o),
(352,278,o),
(384,259,cs),
(417,240,o),
(419,201,o),
(384,194,cs),
(339,185,o),
(70,201,o),
(47,202,c),
(48,0,l),
(283,-1,l)
);
}
);
};
backgroundImage = {
imagePath = /Users/mirkovelimirovic/Downloads/IMG_7408.JPG;
locked = 1;
pos = (-859,-1771);
scale = (0.7854,0.7854);
};
layerId = m01;
shapes = (
{
closed = 1;
nodes = (
(437,-8,o),
(524,57,o),
(524,177,cs),
(524,274,o),
(468,307,o),
(334,346,cs),
(277,363,o),
(220,377,o),
(220,415,cs),
(220,439,o),
(244,449,o),
(310,452,cs),
(365,454,o),
(426,451,o),
(524,443,c),
(524,693,l),
(431,703,o),
(372,707,o),
(332,707,cs),
(147,707,o),
(42,619,o),
(42,482,cs),
(42,354,o),
(135,321,o),
(233,297,cs),
(315,277,o),
(409,262,o),
(409,221,cs),
(409,197,o),
(375,188,o),
(257,198,cs),
(162,206,o),
(117,218,o),
(52,234,c),
(53,7,l),
(123,-2,o),
(195,-8,o),
(273,-8,c)
);
}
);
width = 566;
},
{
anchors = (
{
name = bottom;
pos = (250,0);
},
{
name = top;
pos = (250,700);
}
);
background = {
shapes = (
{
closed = 1;
nodes = (
(341,-3,o),
(434,60,o),
(434,167,cs),
(434,284,o),
(339,314,o),
(250,347,cs),
(170,376,o),
(95,406,o),
(95,500,cs),
(95,595,o),
(164,661,o),
(262,661,cs),
(318,661,o),
(334,660,o),
(410,655,c),
(410,698,l),
(376,701,o),
(341,702,o),
(271,702,cs),
(153,702,o),
(63,621,o),
(63,513,cs),
(63,396,o),
(151,359,o),
(238,327,cs),
(326,295,o),
(413,268,o),
(413,173,cs),
(413,105,o),
(380,33,o),
(231,21,cs),
(185,17,o),
(100,21,o),
(77,24,c),
(78,3,l),
(113,1,o),
(149,-1,o),
(184,-1,cs)
);
}
);
};
layerId = "60D037D9-62E9-4843-B070-F1594CB0B0D1";
shapes = (
{
closed = 1;
nodes = (
(347,-8,o),
(444,61,o),
(444,169,cs),
(444,259,o),
(409,321,o),
(259,362,cs),
(133,397,o),
(90,456,o),
(90,516,cs),
(90,606,o),
(161,665,o),
(272,665,cs),
(311,665,o),
(363,660,o),
(409,651,c),
(416,694,l),
(346,703,o),
(316,705,o),
(277,705,cs),
(153,705,o),
(63,628,o),
(63,516,cs),
(63,436,o),
(108,377,o),
(247,338,cs),
(392,298,o),
(420,248,o),
(418,173,cs),
(415,73,o),
(327,31,o),
(192,31,cs),
(135,31,o),
(82,46,o),
(57,59,c),
(58,16,l),
(98,-1,o),
(156,-8,o),
(184,-8,cs)
);
}
);
width = 499;
}
);
metricLeft = O;
metricRight = O;
unicode = 83;
},
{
color = 3;
glyphname = T;
lastChange = "2023-11-10 17:01:34 +0000";
layers = (
{
background = {
shapes = (
{
closed = 1;
nodes = (
(566,699,l),
(257,701,o),
(157,700,o),
(48,701,c),
(52,467,o),
(52,234,o),
(48,0,c),
(164,0,o),
(266,0,o),
(566,0,c),
(566,193,l),
(557,192,o),
(330,192,o),
(309,192,cs),
(228,192,o),
(182,194,o),
(153,202,cs),
(127,208,o),
(118,221,o),
(118,239,cs),
(118,254,o),
(128,265,o),
(150,272,cs),
(179,282,o),
(231,286,o),
(309,286,cs),
(329,286,o),
(557,283,o),
(566,282,c),
(566,361,l),
(557,360,o),
(318,357,o),
(286,357,cs),
(219,357,o),
(179,358,o),
(155,366,cs),
(133,373,o),
(126,384,o),
(126,398,cs),
(126,413,o),
(134,424,o),
(153,431,cs),
(177,438,o),
(220,442,o),
(286,442,cs),
(318,442,o),
(557,442,o),
(566,441,c)
);
},
{
closed = 1;
nodes = (
(360,0,l),
(360,21,ls),
(360,200,o),
(355,350,o),
(355,388,cs),
(355,412,o),
(363,423,o),
(382,430,cs),
(406,437,o),
(449,441,o),
(515,441,cs),
(613,441,l),
(613,699,l),
(24,699,l),
(24,441,l),
(122,441,ls),
(188,441,o),
(231,437,o),
(255,430,cs),
(274,423,o),
(282,412,o),
(282,388,cs),
(282,350,o),
(281,205,o),
(278,28,c),
(277,19,o),
(277,10,o),
(277,0,c)
);
}
);
};
layerId = m01;
shapes = (
{
closed = 1;
nodes = (
(371,0,l),
(366,120,o),
(363,275,o),
(363,388,cs),
(363,412,o),
(371,426,o),
(390,433,cs),
(419,442,o),
(466,446,o),
(515,444,cs),
(613,441,l),
(613,699,l),
(24,699,l),
(24,441,l),
(122,444,ls),
(171,446,o),
(218,442,o),
(247,433,cs),
(266,426,o),
(274,412,o),
(274,388,cs),
(274,275,o),
(271,120,o),
(266,0,c)
);
}
);
width = 637;
},
{
layerId = "60D037D9-62E9-4843-B070-F1594CB0B0D1";
shapes = (
{
closed = 1;
nodes = (
(322,0,l),
(318,294,o),
(321,541,o),
(321,603,cs),
(321,630,o),
(329,649,o),
(348,656,cs),
(371,663,o),
(415,663,o),
(481,662,cs),
(579,661,l),
(579,699,l),
(40,699,l),
(40,661,l),
(138,662,ls),
(204,663,o),
(248,663,o),
(271,656,cs),
(290,649,o),
(298,630,o),
(298,603,cs),
(298,541,o),
(301,294,o),
(297,0,c)
);
}
);
width = 619;
}
);
unicode = 84;
},
{
color = 1;
glyphname = U;
lastChange = "2023-11-10 17:14:41 +0000";
layers = (
{
anchors = (
{
name = bottom;
pos = (251,0);
},
{
name = ogonek;
pos = (491,10);
},
{
name = top;
pos = (251,700);
},
{
name = topright;
pos = (531,700);
}
);
layerId = m01;
shapes = (
{
closed = 1;
nodes = (
(532,-9,o),
(594,59,o),
(596,302,cs),
(599,700,l),
(487,700,l),
(492,424,ls),
(493,357,o),
(443,329,o),
(319,329,cs),
(195,329,o),
(146,356,o),
(147,424,cs),
(153,700,l),
(42,700,l),
(43,310,ls),
(44,56,o),
(100,-9,o),
(319,-9,cs)
);
}
);
width = 641;
},
{
anchors = (
{
name = bottom;
pos = (281,0);
},
{
name = ogonek;
pos = (521,10);
},
{
name = top;
pos = (281,700);
},
{
name = topright;
pos = (561,700);
}
);
background = {
shapes = (
{
pos = (-19,0);
ref = H;
}
);
};
layerId = "60D037D9-62E9-4843-B070-F1594CB0B0D1";
shapes = (
{
closed = 1;
nodes = (
(504,-9,o),
(500,63,o),
(501,302,cs),
(503,700,l),
(477,700,l),
(479,180,ls),
(479,68,o),
(433,28,o),
(280,28,cs),
(127,28,o),
(81,68,o),
(81,180,cs),
(83,700,l),
(57,700,l),
(59,302,ls),
(60,63,o),
(56,-9,o),
(280,-9,cs)
);
}
);
width = 558;
}
);
metricLeft = O;
metricRight = O;
unicode = 85;
},
{
color = 3;
glyphname = V;
lastChange = "2023-11-10 17:14:41 +0000";
layers = (
{
layerId = m01;
shapes = (
{
closed = 1;
nodes = (
(556,0,l),
(569,224,o),
(590,452,o),
(626,700,c),
(499,700,l),
(495,623,o),
(493,500,o),
(483,386,cs),
(478,331,o),
(452,329,o),
(328,329,cs),
(202,329,o),
(178,331,o),
(173,386,cs),
(163,500,o),
(161,623,o),
(157,700,c),
(30,700,l),
(66,452,o),
(87,224,o),
(100,0,c)
);
}
);
width = 656;
},
{
layerId = "60D037D9-62E9-4843-B070-F1594CB0B0D1";
shapes = (
{
closed = 1;
nodes = (
(455,0,l),
(472,232,o),
(495,468,o),
(518,700,c),
(490,700,l),
(478,490,o),
(456,280,o),
(440,70,cs),
(438,39,o),
(427,37,o),
(287,37,cs),
(147,37,o),
(136,39,o),
(134,70,cs),
(118,280,o),
(96,490,o),
(84,700,c),
(56,700,l),
(79,468,o),
(102,232,o),
(119,0,c)
);
}
);
width = 574;
}
);
metricLeft = A;
metricRight = A;
unicode = 86;
},
{
color = 2;
glyphname = W;
lastChange = "2023-11-10 17:14:41 +0000";
layers = (
{
anchors = (
{
name = bottom;
pos = (289,0);
},
{
name = top;
pos = (289,700);
}
);
background = {
shapes = (
{
pos = (64,0);
ref = O;
}
);
};
layerId = m01;
shapes = (
{
closed = 1;
nodes = (
(349,0,l),
(367,337,o),
(368,347,o),
(410,347,cs),
(452,347,o),
(451,337,o),
(476,0,c),
(716,0,l),
(724,116,o),
(734,233,o),
(747,350,cs),
(760,467,o),
(776,583,o),
(795,700,c),
(682,700,l),
(683,603,o),
(682,518,o),
(674,451,cs),
(670,417,o),
(662,395,o),
(649,384,cs),
(639,374,o),
(621,371,o),
(597,371,cs),
(558,371,o),
(549,376,o),
(535,388,cs),
(508,414,o),
(503,437,o),
(467,700,c),
(358,700,l),
(322,437,o),
(317,414,o),
(290,388,cs),
(276,376,o),
(267,371,o),
(228,371,cs),
(204,371,o),
(186,374,o),
(176,384,cs),
(163,395,o),
(155,417,o),
(151,451,cs),
(143,518,o),
(142,603,o),
(143,700,c),
(30,700,l),
(49,583,o),
(65,467,o),
(78,350,cs),
(91,233,o),
(101,116,o),
(109,0,c)
);
}
);
width = 825;
},
{
anchors = (
{
name = bottom;
pos = (290,0);
},
{
name = top;
pos = (290,700);
}
);
layerId = "60D037D9-62E9-4843-B070-F1594CB0B0D1";
shapes = (
{
closed = 1;
nodes = (
(242,0,l),
(341,529,o),
(341,529,o),
(376,529,cs),
(412,529,o),
(412,529,o),
(511,0,c),
(639,0,l),
(643,116,o),
(653,233,o),
(663,350,cs),
(673,467,o),
(682,583,o),
(698,700,c),
(669,700,l),
(655,493,o),
(641,350,o),
(634,253,cs),
(626,136,o),
(623,81,o),
(620,68,cs),
(614,42,o),
(595,38,o),
(576,38,cs),
(538,38,o),
(525,46,o),
(520,68,cs),
(502,154,o),
(448,442,o),
(421,566,c),
(331,566,l),
(304,442,o),
(251,154,o),
(233,68,cs),
(228,46,o),
(215,38,o),
(177,38,cs),
(158,38,o),
(139,42,o),
(133,68,cs),
(130,81,o),
(127,136,o),
(119,253,cs),
(112,350,o),
(99,493,o),
(85,700,c),
(56,700,l),
(72,583,o),
(80,467,o),
(90,350,cs),
(100,233,o),
(110,116,o),
(114,0,c)
);
}
);
width = 754;
}
);
metricLeft = A;
metricRight = A;
unicode = 87;
},
{
color = 2;
glyphname = X;
lastChange = "2023-11-10 17:14:41 +0000";
layers = (
{
anchors = (
{
name = bottom;
pos = (269,0);
},
{
name = top;
pos = (269,700);
}
);
layerId = m01;
shapes = (
{
closed = 1;
nodes = (
(239,0,l),
(270,103,o),
(286,153,o),
(307,177,cs),
(326,200,o),
(351,200,o),
(400,200,cs),
(448,200,o),
(474,200,o),
(493,179,cs),
(515,155,o),
(530,105,o),
(562,0,c),
(680,0,l),
(550,313,o),
(537,331,o),
(537,361,cs),
(537,391,o),
(546,408,o),
(670,700,c),
(420,700,l),
(390,583,o),
(377,535,o),
(354,514,cs),
(338,500,o),
(317,500,o),
(281,500,cs),
(242,500,o),
(221,500,o),
(205,519,cs),
(186,542,o),
(173,592,o),
(147,700,c),
(40,700,l),
(163,408,o),
(175,391,o),
(175,361,cs),
(175,331,o),
(162,313,o),
(30,0,c)
);
}
);
width = 710;
},
{
anchors = (
{
name = bottom;
pos = (263,0);
},
{
name = top;
pos = (263,700);
}
);
layerId = "60D037D9-62E9-4843-B070-F1594CB0B0D1";
shapes = (
{
closed = 1;
nodes = (
(88,0,l),
(161,215,o),
(199,317,o),
(213,331,cs),
(223,341,o),
(232,343,o),
(298,343,cs),
(364,343,o),
(373,342,o),
(384,331,cs),
(398,317,o),
(435,215,o),
(508,0,c),
(540,0,l),
(430,291,o),
(409,331,o),
(409,361,cs),
(409,391,o),
(421,409,o),
(531,700,c),
(499,700,l),
(435,507,o),
(395,404,o),
(383,391,cs),
(372,380,o),
(363,379,o),
(298,379,cs),
(233,379,o),
(223,381,o),
(213,391,cs),
(201,404,o),
(161,509,o),
(97,700,c),
(65,700,l),
(175,409,o),
(187,391,o),
(187,361,cs),
(187,331,o),
(166,291,o),
(56,0,c)
);
}
);
width = 596;
}
);
metricLeft = A;
metricRight = A;
unicode = 88;
},
{
color = 2;
glyphname = Y;
lastChange = "2023-11-10 17:14:41 +0000";
layers = (
{
anchors = (
{
name = bottom;
pos = (242,0);
},
{
name = top;
pos = (242,700);
},
{
name = topleft;
pos = (-19,700);
}
);
background = {
shapes = (
{
pos = (-11,0);
ref = V;
}
);
};
layerId = m01;
shapes = (
{
closed = 1;
nodes = (
(396,-10,o),
(572,54,o),
(588,240,cs),
(589,255,o),
(594,268,o),
(620,700,c),
(529,700,l),
(529,615,o),
(530,571,o),
(509,547,cs),
(486,522,o),
(438,522,o),
(337,522,cs),
(134,522,o),
(134,522,o),
(133,700,c),
(42,700,l),
(47,630,ls),
(69,327,o),
(121,255,o),
(307,267,cs),
(427,275,o),
(485,308,o),
(505,301,cs),
(515,297,o),
(513,284,o),
(504,270,cs),
(492,250,o),
(354,164,o),
(106,252,c),
(106,0,l),
(150,-6,o),
(191,-10,o),
(227,-10,cs)
);
}
);
width = 662;
},
{
anchors = (
{
name = bottom;
pos = (324,0);
},
{
name = top;
pos = (324,700);
},
{
name = topleft;
pos = (44,700);
}
);
background = {
shapes = (
{
pos = (660,105);
ref = R;
scale = (-1,1);
}
);
};
layerId = "60D037D9-62E9-4843-B070-F1594CB0B0D1";
shapes = (
{
closed = 1;
nodes = (
(385,-10,o),
(506,55,o),
(533,241,cs),
(538,276,o),
(541,268,o),
(567,700,c),
(539,700,l),
(535,562,o),
(527,442,o),
(524,425,cs),
(520,402,o),
(422,402,o),
(314,402,cs),
(145,402,o),
(94,408,o),
(86,700,c),
(57,700,l),
(62,630,ls),
(81,364,o),
(147,371,o),
(334,371,cs),
(437,371,o),
(506,379,o),
(517,371,cs),
(531,361,o),
(516,199,o),
(470,131,cs),
(439,85,o),
(343,-15,o),
(95,42,c),
(95,0,l),
(139,-6,o),
(180,-10,o),
(216,-10,cs)
);
}
);
width = 622;
}
);
metricLeft = O;
metricRight = O;
unicode = 89;
},
{
color = 2;
glyphname = Z;
lastChange = "2023-11-10 17:14:41 +0000";
layers = (
{
anchors = (
{
name = bottom;
pos = (338,0);
},
{
name = center;
pos = (338,334);
},
{
name = top;
pos = (338,700);
}
);
background = {
shapes = (
{
pos = (648,0);
ref = S;
scale = (-1,1);
}
);
};
layerId = m01;
shapes = (
{
closed = 1;
nodes = (
(596,0,l),
(596,220,l),
(471,209,o),
(428,205,o),
(398,204,cs),
(359,203,o),
(331,202,o),
(312,202,cs),
(272,202,o),
(264,204,o),
(264,214,cs),
(264,224,o),
(277,235,o),
(300,248,cs),
(353,278,o),
(459,318,o),
(596,371,c),
(596,700,l),
(42,700,l),
(42,445,l),
(123,445,o),
(213,448,o),
(292,448,cs),
(326,448,o),
(351,448,o),
(370,446,cs),
(417,443,o),
(421,434,o),
(421,414,cs),
(421,405,o),
(414,395,o),
(396,381,cs),
(355,352,o),
(256,306,o),
(42,215,c),
(42,0,l)
);
}
);
width = 638;
},
{
anchors = (
{
name = bottom;
pos = (317,0);
},
{
name = center;
pos = (317,350);
},
{
name = top;
pos = (317,700);
}
);
layerId = "60D037D9-62E9-4843-B070-F1594CB0B0D1";
shapes = (
{
closed = 1;
nodes = (
(513,0,l),
(513,33,l),
(378,33,o),
(287,33,o),
(257,33,cs),
(82,33,o),
(82,33,o),
(82,78,cs),
(82,120,o),
(82,120,o),
(112,151,cs),
(135,176,o),
(244,270,o),
(265,289,cs),
(318,336,o),
(396,397,o),
(509,489,c),
(513,700,l),
(57,700,l),
(57,665,l),
(138,665,o),
(228,669,o),
(307,669,cs),
(377,669,o),
(448,673,o),
(471,655,cs),
(489,641,o),
(486,627,o),
(486,591,cs),
(486,511,o),
(482,511,o),
(474,503,cs),
(400,426,o),
(225,298,o),
(57,139,c),
(57,0,l)
);
}
);
width = 568;
}
);
metricLeft = O;
metricRight = O;
unicode = 90;
},
{
glyphname = E.a;
lastChange = "2023-11-10 16:38:14 +0000";
layers = (
{
background = {
shapes = (
{
closed = 1;
nodes = (
(34,467,o),
(34,234,o),
(30,0,c),
(159,0,o),
(270,0,o),
(378,0,cs),
(467,0,o),
(592,25,o),
(592,202,cs),
(592,348,o),
(455,368,o),
(455,368,cs),
(455,368,o),
(548,374,o),
(548,526,cs),
(548,568,o),
(529,697,o),
(378,699,cs),
(258,701,o),
(150,700,o),
(30,701,c)
);
},
{
closed = 1;
nodes = (
(210,192,o),
(164,196,o),
(135,207,cs),
(109,218,o),
(100,236,o),
(100,265,cs),
(100,288,o),
(110,305,o),
(132,316,cs),
(161,331,o),
(213,337,o),
(291,337,cs),
(369,337,o),
(418,332,o),
(447,318,cs),
(470,306,o),
(480,289,o),
(480,265,cs),
(480,238,o),
(474,221,o),
(452,210,cs),
(424,196,o),
(376,192,o),
(291,192,cs)
);
},
{
closed = 1;
nodes = (
(201,374,o),
(161,375,o),
(137,381,cs),
(115,387,o),
(108,396,o),
(108,407,cs),
(108,419,o),
(116,428,o),
(135,433,cs),
(159,439,o),
(202,442,o),
(268,442,cs),
(336,442,o),
(377,441,o),
(402,433,cs),
(421,428,o),
(430,420,o),
(430,407,cs),
(430,396,o),
(424,387,o),
(406,383,cs),
(382,375,o),
(341,374,o),
(268,374,cs)
);
}
);
};
layerId = m01;
shapes = (
{
closed = 1;
nodes = (
(146,0,o),
(248,0,o),
(548,0,c),
(548,193,l),
(330,192,o),
(312,192,o),
(291,192,cs),
(210,192,o),
(164,196,o),
(135,207,cs),
(109,218,o),
(100,236,o),
(100,265,cs),
(100,288,o),
(110,305,o),
(132,316,cs),
(161,331,o),
(213,337,o),
(291,337,cs),
(311,337,o),
(330,337,o),
(548,336,c),
(548,375,l),
(325,374,o),
(300,374,o),
(268,374,cs),
(201,374,o),
(161,375,o),
(137,381,cs),
(115,387,o),
(108,396,o),
(108,407,cs),
(108,419,o),
(116,428,o),
(135,433,cs),
(159,439,o),
(202,442,o),
(268,442,cs),
(300,442,o),
(325,442,o),
(548,441,c),
(548,699,l),
(239,701,o),
(139,700,o),
(30,701,c),
(34,467,o),
(34,234,o),
(30,0,c)
);
}
);
width = 600;
},
{
layerId = "60D037D9-62E9-4843-B070-F1594CB0B0D1";
shapes = (
{
closed = 1;
nodes = (
(146,0,o),
(248,0,o),
(548,0,c),
(548,193,l),
(330,192,o),
(312,192,o),
(291,192,cs),
(210,192,o),
(164,196,o),
(135,207,cs),
(109,218,o),
(100,236,o),
(100,265,cs),
(100,288,o),
(110,305,o),
(132,316,cs),
(161,331,o),
(213,337,o),
(291,337,cs),
(311,337,o),
(330,337,o),
(548,336,c),
(548,375,l),
(325,374,o),
(300,374,o),
(268,374,cs),
(201,374,o),
(161,375,o),
(137,381,cs),
(115,387,o),
(108,396,o),
(108,407,cs),
(108,419,o),
(116,428,o),
(135,433,cs),
(159,439,o),
(202,442,o),
(268,442,cs),
(300,442,o),
(325,442,o),
(548,441,c),
(548,699,l),
(239,701,o),
(139,700,o),
(30,701,c),
(34,467,o),
(34,234,o),
(30,0,c)
);
}
);
width = 600;
}
);
},
{
color = 1;
glyphname = R.alt;
lastChange = "2023-11-10 16:38:14 +0000";
layers = (
{
layerId = m01;
shapes = (
{
closed = 1;
nodes = (
(194,0,l),
(178,93,o),
(169,175,o),
(169,239,cs),
(169,275,o),
(176,297,o),
(191,308,c),
(211,318,o),
(249,324,o),
(293,324,cs),
(393,324,o),
(464,333,o),
(500,350,cs),
(563,380,o),
(583,423,o),
(583,526,cs),
(583,622,o),
(509,698,o),
(413,699,cs),
(65,701,l),
(68,350,ls),
(68,233,o),
(66,117,o),
(62,0,c)
);
},
{
closed = 1;
nodes = (
(522,-7,o),
(539,-3,o),
(581,17,c),
(581,262,l),
(550,250,o),
(498,242,o),
(450,242,cs),
(355,242,o),
(326,262,o),
(326,330,c),
(251,329,l),
(251,194,o),
(282,98,o),
(341,51,cs),
(388,13,o),
(439,-7,o),
(489,-7,cs)
);
},
{
closed = 1;
nodes = (
(228,374,o),
(194,376,o),
(172,381,cs),
(153,386,o),
(143,395,o),
(143,407,cs),
(143,420,o),
(152,428,o),
(170,433,cs),
(194,439,o),
(238,442,o),
(303,442,cs),
(385,442,o),
(415,440,o),
(437,433,cs),
(456,428,o),
(465,420,o),
(465,407,cs),
(465,396,o),
(458,388,o),
(441,383,cs),
(418,376,o),
(382,374,o),
(303,374,cs)
);
}
);
width = 607;
},
{
layerId = "60D037D9-62E9-4843-B070-F1594CB0B0D1";
shapes = (
{
closed = 1;
nodes = (
(222,0,l),
(206,93,o),
(197,175,o),
(197,239,cs),
(197,275,o),
(204,297,o),
(219,308,c),
(239,318,o),
(277,324,o),
(321,324,cs),
(421,324,o),
(492,333,o),
(528,350,cs),
(591,380,o),
(611,423,o),
(611,526,cs),
(611,623,o),
(537,698,o),
(441,699,cs),
(93,701,l),
(96,350,ls),
(96,233,o),
(94,117,o),
(90,0,c)
);
},
{
closed = 1;
nodes = (
(550,-7,o),
(567,-3,o),
(609,17,c),
(609,262,l),
(578,250,o),
(526,242,o),
(478,242,cs),
(383,242,o),
(354,262,o),
(354,330,c),
(279,329,l),
(279,194,o),
(310,98,o),
(369,51,cs),
(416,13,o),
(467,-7,o),
(517,-7,cs)
);
},
{
closed = 1;
nodes = (
(256,374,o),
(222,376,o),
(200,381,cs),
(181,386,o),
(171,395,o),
(171,407,cs),
(171,420,o),
(180,428,o),
(198,433,cs),
(222,439,o),
(266,442,o),
(331,442,cs),
(413,442,o),
(443,440,o),
(465,433,cs),
(484,428,o),
(493,420,o),
(493,407,cs),
(493,395,o),
(485,388,o),
(469,383,cs),
(448,377,o),
(417,374,o),
(331,374,cs)
);
}
);
width = 666;
}
);
metricLeft = H;
},
{
color = 0;
export = 0;
glyphname = X.001;
lastChange = "2023-11-10 16:38:14 +0000";
layers = (
{
anchors = (
{
name = bottom;
pos = (300,0);
},
{
name = top;
pos = (300,700);
}
);
layerId = m01;
shapes = (
{
closed = 1;
nodes = (
(610,285,o),
(589,363,o),
(620,630,cs),
(628,700,l),
(534,700,l),
(533,522,o),
(533,522,o),
(333,522,c),
(333,285,l)
);
},
{
closed = 1;
nodes = (
(335,522,l),
(135,522,o),
(135,522,o),
(134,700,c),
(40,700,l),
(48,630,ls),
(79,357,o),
(61,285,o),
(335,285,c)
);
}
);
width = 748;
},
{
anchors = (
{
name = bottom;
pos = (300,0);
},
{
name = top;
pos = (300,700);
}
);
layerId = "60D037D9-62E9-4843-B070-F1594CB0B0D1";
width = 600;
}
);
},
{
color = 0;
export = 0;
glyphname = X.002;
lastChange = "2023-11-10 16:38:14 +0000";
layers = (
{
anchors = (
{
name = bottom;
pos = (300,0);
},
{
name = top;
pos = (300,700);
}
);
layerId = m01;
shapes = (
{
closed = 1;
nodes = (
(316,0,l),
(375,236,o),
(375,237,o),
(441,237,cs),
(507,237,o),
(509,237,o),
(586,0,c),
(712,0,l),
(574,313,o),
(561,331,o),
(561,361,cs),
(561,391,o),
(571,408,o),
(701,700,c),
(412,700,l),
(348,485,o),
(348,485,o),
(282,485,cs),
(216,485,o),
(216,485,o),
(152,700,c),
(32,700,l),
(162,408,o),
(175,391,o),
(175,361,cs),
(175,331,o),
(162,313,o),
(21,0,c)
);
}
);
width = 748;
},
{
anchors = (
{
name = bottom;
pos = (300,0);
},
{
name = top;
pos = (300,700);
}
);
layerId = "60D037D9-62E9-4843-B070-F1594CB0B0D1";
width = 600;
}
);
},
{
color = 0;
export = 0;
glyphname = X.003;
lastChange = "2023-11-10 16:38:14 +0000";
layers = (
{
anchors = (
{
name = bottom;
pos = (300,0);
},
{
name = top;
pos = (300,700);
}
);
background = {
shapes = (
{
ref = V;
}
);
};
layerId = m01;
shapes = (
{
closed = 1;
nodes = (
(168,0,l),
(168,210,o),
(168,210,o),
(346,210,cs),
(522,210,o),
(522,210,o),
(522,0,c),
(652,0,l),
(603,157,o),
(589,248,o),
(572,355,c),
(589,462,o),
(603,543,o),
(652,700,c),
(522,700,l),
(522,500,o),
(522,500,o),
(346,500,cs),
(168,500,o),
(168,500,o),
(168,700,c),
(40,700,l),
(85,538,o),
(103,462,o),
(119,355,c),
(103,248,o),
(85,162,o),
(40,0,c)
);
}
);
width = 748;
},
{
anchors = (
{
name = bottom;
pos = (300,0);
},
{
name = top;
pos = (300,700);
}
);
layerId = "60D037D9-62E9-4843-B070-F1594CB0B0D1";
width = 600;
}
);
},
{
color = 0;
export = 0;
glyphname = X.004;
lastChange = "2023-11-10 16:38:14 +0000";
layers = (
{
anchors = (
{
name = bottom;
pos = (300,0);
},
{
name = top;
pos = (300,700);
}
);
background = {
shapes = (
{
ref = V;
}
);
};
layerId = m01;
shapes = (
{
closed = 1;
nodes = (
(610,285,o),
(589,363,o),
(620,630,cs),
(628,700,l),
(381,700,l),
(381,522,o),
(381,522,o),
(257,522,cs),
(133,522,o),
(133,522,o),
(132,700,c),
(38,700,l),
(46,630,ls),
(77,357,o),
(59,285,o),
(333,285,cs)
);
},
{
closed = 1;
nodes = (
(303,0,l),
(304,178,o),
(304,178,o),
(419,178,cs),
(534,178,o),
(534,178,o),
(535,0,c),
(628,0,l),
(620,70,ls),
(589,337,o),
(610,415,o),
(333,415,cs),
(59,415,o),
(77,343,o),
(46,70,cs),
(38,0,l)
);
}
);
width = 748;
},
{
anchors = (
{
name = bottom;
pos = (300,0);
},
{
name = top;
pos = (300,700);
}
);
layerId = "60D037D9-62E9-4843-B070-F1594CB0B0D1";
width = 600;
}
);
},
{
color = 0;
export = 0;
glyphname = Y.001;
lastChange = "2023-11-10 16:38:14 +0000";
layers = (
{
anchors = (
{
name = bottom;
pos = (281,0);
},
{
name = top;
pos = (281,700);
},
{
name = topleft;
pos = (20,700);
}
);
background = {
shapes = (
{
closed = 1;
nodes = (
(344,200,ls),
(418,200,o),
(428,208,o),
(451,309,cs),
(541,700,l),
(461,700,l),
(416,515,ls),
(406,475,o),
(401,474,o),
(281,474,cs),
(161,474,o),
(155,475,o),
(145,515,cs),
(100,700,l),
(20,700,l),
(110,309,ls),
(133,208,o),
(143,200,o),
(217,200,cs)
);
},
{
closed = 1;
nodes = (
(336,0,l),
(322,102,o),
(322,203,o),
(336,305,c),
(225,305,l),
(239,203,o),
(239,102,o),
(225,0,c)
);
}
);
};
layerId = m01;
shapes = (
{
closed = 1;
nodes = (
(494,-10,o),
(582,59,o),
(617,202,cs),
(621,217,o),
(639,259,o),
(659,700,c),
(556,700,l),
(556,642,o),
(560,560,o),
(560,541,cs),
(559,497,o),
(545,491,o),
(447,491,cs),
(303,491,o),
(333,513,o),
(314,700,c),
(70,700,l),
(78,630,ls),
(106,383,o),
(214,422,o),
(403,422,cs),
(465,422,o),
(567,441,o),
(559,371,cs),
(552,310,o),
(513,280,o),
(204,275,c),
(204,0,l),
(248,-6,o),
(289,-10,o),
(325,-10,cs)
);
}
);
width = 739;
},
{
anchors = (
{
name = bottom;
pos = (300,0);
},
{
name = top;
pos = (300,700);
},
{
name = topleft;
pos = (20,700);
}
);
layerId = "60D037D9-62E9-4843-B070-F1594CB0B0D1";
width = 600;
}
);
},
{
color = 8;
export = 0;
glyphname = K.alt;
lastChange = "2023-11-10 16:38:14 +0000";
layers = (
{
anchors = (
{
name = bottom;
pos = (360,0);
},
{
name = top;
pos = (360,700);
}
);
background = {
shapes = (
{
closed = 1;
nodes = (
(166,0,l),
(162,75,o),
(158,164,o),
(158,224,cs),
(158,251,o),
(170,259,o),
(199,259,cs),
(240,259,o),
(244,218,o),
(255,164,cs),
(287,0,l),
(660,0,l),
(626,198,ls),
(619,241,o),
(598,276,o),
(461,276,cs),
(329,276,o),
(309,281,o),
(309,308,cs),
(309,330,o),
(325,335,o),
(461,335,cs),
(606,335,o),
(621,364,o),
(628,442,cs),
(652,700,l),
(272,699,l),
(249,424,ls),
(242,339,o),
(225,327,o),
(204,327,cs),
(180,327,o),
(168,340,o),
(165,397,cs),
(162,458,o),
(166,588,o),
(166,700,c),
(62,700,l),
(73,467,o),
(73,233,o),
(62,0,c)
);
},
{
closed = 1;
nodes = (
(110,-5,o),
(226,-3,o),
(343,-3,cs),
(460,-3,o),
(577,-5,o),
(693,-9,c),
(693,289,l),
(356,307,o),
(346,309,o),
(346,350,cs),
(346,391,o),
(356,393,o),
(693,411,c),
(693,709,l),
(577,705,o),
(460,703,o),
(343,703,cs),
(226,703,o),
(110,705,o),
(-7,709,c),
(-7,599,l),
(90,615,o),
(175,624,o),
(242,624,cs),
(276,624,o),
(298,618,o),
(309,605,cs),
(319,595,o),
(322,579,o),
(322,544,cs),
(322,505,o),
(317,484,o),
(305,470,cs),
(279,443,o),
(256,438,o),
(-7,402,c),
(-7,298,l),
(256,262,o),
(279,257,o),
(305,230,cs),
(317,216,o),
(322,195,o),
(322,156,cs),
(322,121,o),
(319,105,o),
(309,95,cs),
(298,82,o),
(276,76,o),
(242,76,cs),
(175,76,o),
(90,85,o),
(-7,101,c),
(-7,-9,l)
);
}
);
};
backgroundImage = {
imagePath = "/Users/mirkovelimirovic/Downloads/Images/K_.alt-Bold.tif";
locked = 1;
pos = (-374,-1189);
scale = (0.7803,0.7803);
};
layerId = m01;
shapes = (
{
closed = 1;
nodes = (
(166,0,l),
(162,75,o),
(158,126,o),
(158,186,cs),
(158,230,o),
(149,260,o),
(199,259,cs),
(232,258,o),
(240,230,o),
(247,202,cs),
(287,41,o),
(414,0,o),
(660,0,c),
(660,289,l),
(366,305,o),
(346,310,o),
(346,350,cs),
(346,393,o),
(356,404,o),
(410,419,cs),
(473,437,o),
(541,454,o),
(572,486,cs),
(602,516,o),
(619,545,o),
(637,630,cs),
(652,700,l),
(481,700,l),
(447,513,o),
(449,491,o),
(275,491,cs),
(177,491,o),
(163,497,o),
(162,541,cs),
(162,560,o),
(166,642,o),
(166,700,c),
(62,700,l),
(73,467,o),
(73,233,o),
(62,0,c)
);
}
);
width = 708;
},
{
anchors = (
{
name = bottom;
pos = (355,0);
},
{
name = top;
pos = (355,700);
}
);
layerId = "60D037D9-62E9-4843-B070-F1594CB0B0D1";
shapes = (
{
closed = 1;
nodes = (
(194,0,l),
(190,75,o),
(186,164,o),
(186,224,cs),
(186,251,o),
(198,259,o),
(227,259,cs),
(268,259,o),
(274,218,o),
(283,164,cs),
(315,0,l),
(688,0,l),
(654,198,ls),
(649,241,o),
(626,276,o),
(489,276,cs),
(357,276,o),
(337,281,o),
(337,308,cs),
(337,330,o),
(353,335,o),
(489,335,cs),
(634,335,o),
(648,364,o),
(656,442,cs),
(680,700,l),
(300,699,l),
(277,424,ls),
(268,339,o),
(253,327,o),
(232,327,cs),
(208,327,o),
(196,340,o),
(193,397,cs),
(190,458,o),
(194,588,o),
(194,700,c),
(90,700,l),
(101,467,o),
(101,233,o),
(90,0,c)
);
}
);
width = 700;
}
);
metricLeft = H;
},
{
color = 5;
glyphname = a;
lastChange = "2023-11-10 19:33:18 +0000";
layers = (
{
anchors = (
{
name = bottom;
pos = (297,0);
},
{
name = ogonek;
pos = (522,10);
},
{
name = top;
pos = (297,500);
}
);
background = {
shapes = (
{
pos = (646,0);
ref = n.ss01;
scale = (-1,1);
},
{
closed = 1;
nodes = (
(391,-16,o),
(415,11,o),
(447,50,cs),
(470,78,o),
(471,90,o),
(487,90,cs),
(510,90,o),
(503,52,o),
(502,0,c),
(592,0,l),
(588,233,o),
(588,267,o),
(592,500,c),
(505,500,l),
(506,448,o),
(513,410,o),
(496,410,cs),
(480,410,o),
(481,421,o),
(454,450,cs),
(423,483,o),
(387,516,o),
(278,516,cs),
(114,516,o),
(36,431,o),
(36,250,cs),
(36,60,o),
(114,-16,o),
(278,-16,cs)
);
},
{
closed = 1;
nodes = (
(174,106,o),
(120,123,o),
(120,175,cs),
(120,227,o),
(174,244,o),
(288,244,cs),
(402,244,o),
(456,227,o),
(456,175,cs),
(456,123,o),
(402,106,o),
(288,106,cs)
);
}
);
};
layerId = m01;
shapes = (
{
closed = 1;
nodes = (
(466,-16,o),
(456,90,o),
(487,90,cs),
(510,90,o),
(503,52,o),
(502,0,c),
(592,0,l),
(588,233,o),
(588,267,o),
(592,500,c),
(505,500,l),
(506,448,o),
(514,410,o),
(496,410,cs),
(467,410,o),
(466,516,o),
(278,516,cs),
(114,516,o),
(36,431,o),
(36,250,cs),
(36,60,o),
(114,-16,o),
(278,-16,cs)
);
},
{
closed = 1;
nodes = (
(174,106,o),
(120,123,o),
(120,175,cs),
(120,227,o),
(174,244,o),
(288,244,cs),
(402,244,o),
(456,227,o),
(456,175,cs),
(456,123,o),
(402,106,o),
(288,106,cs)
);
}
);
width = 638;
},
{
anchors = (
{
name = bottom;
pos = (298,0);
},
{
name = ogonek;
pos = (530,10);
},
{
name = top;
pos = (298,480);
}
);
background = {
shapes = (
{
closed = 1;
nodes = (
(331,-16,o),
(383,1,o),
(418,41,cs),
(450,76,o),
(462,87,o),
(468,87,cs),
(476,87,o),
(478,72,o),
(478,0,c),
(510,0,l),
(505,180,o),
(505,300,o),
(510,480,c),
(478,480,l),
(478,408,o),
(476,393,o),
(468,393,cs),
(462,393,o),
(450,404,o),
(418,439,cs),
(383,479,o),
(331,496,o),
(280,496,cs),
(148,496,o),
(69,400,o),
(69,240,cs),
(69,80,o),
(148,-16,o),
(280,-16,cs)
);
},
{
closed = 1;
nodes = (
(160,21,o),
(92,106,o),
(92,240,cs),
(92,374,o),
(160,459,o),
(269,459,cs),
(404,459,o),
(483,378,o),
(483,240,cs),
(483,102,o),
(404,21,o),
(269,21,cs)
);
}
);
};
layerId = "60D037D9-62E9-4843-B070-F1594CB0B0D1";
shapes = (
{
closed = 1;
nodes = (
(409,-16,o),
(449,87,o),
(472,87,cs),
(481,87,o),
(484,72,o),
(480,0,c),
(510,0,l),
(505,180,o),
(505,300,o),
(510,480,c),
(480,480,l),
(484,408,o),
(481,393,o),
(472,393,cs),
(449,393,o),
(409,496,o),
(275,496,cs),
(145,496,o),
(62,400,o),
(62,240,cs),
(62,80,o),
(145,-16,o),
(275,-16,cs)
);
},
{
closed = 1;
nodes = (
(151,21,o),
(85,106,o),
(85,240,cs),
(85,374,o),
(150,459,o),
(275,459,cs),
(398,459,o),
(483,381,o),
(483,240,cs),
(483,105,o),
(399,21,o),
(275,21,cs)
);
}
);
width = 588;
}
);
metricLeft = o;
metricRight = n;
unicode = 97;
},
{
color = 4;
glyphname = b;
lastChange = "2023-11-10 19:33:07 +0000";
layers = (
{
anchors = (
{
name = bottom;
pos = (323,0);
},
{
name = center;
pos = (323,250);
},
{
name = top;
pos = (323,500);
}
);
background = {
shapes = (
{
pos = (618,0);
ref = a;
scale = (-1,1);
}
);
};
layerId = m01;
shapes = (
{
closed = 1;
nodes = (
(533,-16,o),
(610,60,o),
(610,250,cs),
(610,431,o),
(530,516,o),
(368,516,cs),
(169,516,o),
(190,410,o),
(150,410,cs),
(133,410,o),
(140,453,o),
(141,740,c),
(54,740,l),
(58,494,o),
(58,246,o),
(54,0,c),
(144,0,l),
(143,52,o),
(136,90,o),
(159,90,cs),
(190,90,o),
(169,-16,o),
(368,-16,cs)
);
},
{
closed = 1;
nodes = (
(244,106,o),
(190,123,o),
(190,175,cs),
(190,227,o),
(244,244,o),
(358,244,cs),
(472,244,o),
(526,227,o),
(526,175,cs),
(526,123,o),
(472,106,o),
(358,106,cs)
);
}
);
width = 646;
},
{
anchors = (
{
name = bottom;
pos = (297,0);
},
{
name = center;
pos = (297,240);
},
{
name = top;
pos = (297,480);
}
);
layerId = "60D037D9-62E9-4843-B070-F1594CB0B0D1";
shapes = (
{
closed = 1;
nodes = (
(448,-16,o),
(531,80,o),
(531,240,cs),
(531,400,o),
(448,496,o),
(318,496,cs),
(184,496,o),
(144,393,o),
(121,393,cs),
(112,393,o),
(109,453,o),
(113,740,c),
(83,740,l),
(88,462,o),
(88,277,o),
(83,0,c),
(113,0,l),
(109,72,o),
(112,87,o),
(121,87,cs),
(144,87,o),
(184,-16,o),
(318,-16,cs)
);
},
{
closed = 1;
nodes = (
(194,21,o),
(110,105,o),
(110,240,cs),
(110,381,o),
(195,459,o),
(318,459,cs),
(443,459,o),
(508,374,o),
(508,240,cs),
(508,106,o),
(442,21,o),
(318,21,cs)
);
}
);
width = 593;
}
);
metricLeft = h;
metricRight = o;
unicode = 98;
},
{
color = 3;
glyphname = c;
lastChange = "2023-11-10 19:38:11 +0000";
layers = (
{
anchors = (
{
name = bottom;
pos = (355,0);
},
{
name = top;
pos = (355,500);
}
);
layerId = m01;
shapes = (
{
closed = 1;
nodes = (
(353,-16,o),
(404,-9,o),
(450,12,c),
(451,118,l),
(415,100,o),
(341,98,o),
(300,98,cs),
(167,98,o),
(119,116,o),
(119,165,cs),
(119,216,o),
(167,234,o),
(300,234,cs),
(344,234,o),
(412,234,o),
(451,214,c),
(451,486,l),
(406,509,o),
(350,516,o),
(300,516,cs),
(119,516,o),
(36,431,o),
(36,246,cs),
(36,66,o),
(119,-16,o),
(300,-16,cs)
);
}
);
width = 487;
},
{
anchors = (
{
name = bottom;
pos = (257,0);
},
{
name = top;
pos = (257,480);
}
);
guides = (
{
locked = 1;
pos = (157,240);
}
);
layerId = "60D037D9-62E9-4843-B070-F1594CB0B0D1";
shapes = (
{
closed = 1;
nodes = (
(368,-16,o),
(403,-9,o),
(451,5,c),
(451,41,l),
(391,25,o),
(342,20,o),
(305,20,cs),
(172,20,o),
(84,86,o),
(84,240,cs),
(84,394,o),
(172,460,o),
(305,460,cs),
(342,460,o),
(391,455,o),
(451,439,c),
(451,475,l),
(403,489,o),
(368,496,o),
(302,496,cs),
(160,496,o),
(62,406,o),
(62,240,cs),
(62,74,o),
(160,-16,o),
(302,-16,cs)
);
}
);
width = 513;
}
);
metricLeft = o;
metricRight = o;
unicode = 99;
},
{
color = 4;
glyphname = d;
lastChange = "2023-11-10 19:33:07 +0000";
layers = (
{
anchors = (
{
name = bottom;
pos = (279,0);
},
{
name = center;
pos = (279,250);
},
{
name = top;
pos = (279,800);
},
{
name = topright;
pos = (548,800);
}
);
layerId = m01;
shapes = (
{
closed = 1;
nodes = (
(477,-16,o),
(456,90,o),
(487,90,cs),
(510,90,o),
(503,52,o),
(502,0,c),
(592,0,l),
(588,246,o),
(588,494,o),
(592,740,c),
(505,740,l),
(506,453,o),
(513,410,o),
(496,410,cs),
(456,410,o),
(477,516,o),
(278,516,cs),
(116,516,o),
(36,431,o),
(36,250,cs),
(36,60,o),
(113,-16,o),
(278,-16,cs)
);
},
{
closed = 1;
nodes = (
(174,106,o),
(120,123,o),
(120,175,cs),
(120,227,o),
(174,244,o),
(288,244,cs),
(402,244,o),
(456,227,o),
(456,175,cs),
(456,123,o),
(402,106,o),
(288,106,cs)
);
}
);
width = 638;
},
{
anchors = (
{
name = bottom;
pos = (301,0);
},
{
name = center;
pos = (301,240);
},
{
name = top;
pos = (301,800);
},
{
name = topright;
pos = (536,800);
}
);
background = {
shapes = (
{
closed = 1;
nodes = (
(416,-16,o),
(494,76,o),
(494,247,cs),
(494,410,o),
(416,496,o),
(267,496,cs),
(118,496,o),
(40,410,o),
(40,247,cs),
(40,76,o),
(118,-16,o),
(267,-16,cs)
);
},
{
closed = 1;
nodes = (
(132,3,o),
(61,88,o),
(61,247,cs),
(61,382,o),
(132,453,o),
(267,453,cs),
(402,453,o),
(473,382,o),
(473,247,cs),
(473,88,o),
(402,3,o),
(267,3,cs)
);
}
);
};
layerId = "60D037D9-62E9-4843-B070-F1594CB0B0D1";
shapes = (
{
closed = 1;
nodes = (
(409,-16,o),
(449,87,o),
(472,87,cs),
(481,87,o),
(484,72,o),
(480,0,c),
(510,0,l),
(505,277,o),
(505,462,o),
(510,740,c),
(480,740,l),
(484,453,o),
(481,393,o),
(472,393,cs),
(449,393,o),
(409,496,o),
(275,496,cs),
(145,496,o),
(62,400,o),
(62,240,cs),
(62,80,o),
(145,-16,o),
(275,-16,cs)
);
},
{
closed = 1;
nodes = (
(151,21,o),
(85,106,o),
(85,240,cs),
(85,374,o),
(150,459,o),
(275,459,cs),
(398,459,o),
(483,381,o),
(483,240,cs),
(483,105,o),
(399,21,o),
(275,21,cs)
);
}
);
width = 588;
}
);
metricLeft = o;
metricRight = n;
unicode = 100;
},
{
color = 3;
glyphname = e;
lastChange = "2023-11-10 19:40:20 +0000";
layers = (
{
background = {
shapes = (
{
closed = 1;
nodes = (
(409,-15,o),
(461,-10,o),
(504,2,c),
(504,150,l),
(435,135,o),
(382,126,o),
(301,126,cs),
(238,126,o),
(161,132,o),
(133,191,c),
(532,191,l),
(532,290,o),
(530,360,o),
(502,411,cs),
(462,483,o),
(397,511,o),
(315,516,cs),
(165,525,o),
(45,458,o),
(37,272,cs),
(28,74,o),
(140,-20,o),
(354,-16,cs)
);
},
{
closed = 1;
nodes = (
(188,250,o),
(150,258,o),
(150,280,cs),
(150,302,o),
(183,310,o),
(287,310,cs),
(400,310,o),
(442,302,o),
(442,280,cs),
(442,258,o),
(403,250,o),
(296,250,cs)
);
}
);
};
backgroundImage = {
imagePath = "/Users/mirkovelimirovic/Documents/Github/ojuju/sources/Images/e-ExtraBold.tif";
locked = 1;
pos = (-969,-3564);
scale = (1.4452,1.4452);
};
layerId = m01;
shapes = (
{
closed = 1;
nodes = (
(415,-15,o),
(465,-9,o),
(504,2,c),
(504,150,l),
(421,132,o),
(370,126,o),
(301,126,cs),
(207,126,o),
(154,147,o),
(133,191,c),
(532,191,l),
(532,310,o),
(523,371,o),
(499,415,cs),
(465,477,o),
(394,516,o),
(315,516,cs),
(132,516,o),
(44,439,o),
(37,272,cs),
(28,78,o),
(136,-20,o),
(354,-16,cs)
);
},
{
closed = 1;
nodes = (
(243,250,o),
(209,252,o),
(186,256,cs),
(160,261,o),
(150,268,o),
(150,280,cs),
(150,301,o),
(194,310,o),
(290,310,cs),
(386,310,o),
(430,301,o),
(430,280,cs),
(430,268,o),
(420,261,o),
(394,256,cs),
(371,252,o),
(337,250,o),
(290,250,cs)
);
}
);
width = 568;
},
{
guides = (
{
angle = 90;
pos = (293,259);
}
);
layerId = "60D037D9-62E9-4843-B070-F1594CB0B0D1";
shapes = (
{
closed = 1;
nodes = (
(386,-16,o),
(423,-10,o),
(474,6,c),
(474,41,l),
(413,25,o),
(382,21,o),
(328,21,cs),
(178,21,o),
(106,75,o),
(86,201,c),
(502,201,l),
(502,294,o),
(492,352,o),
(469,395,cs),
(433,459,o),
(365,496,o),
(283,496,cs),
(134,496,o),
(62,390,o),
(62,247,cs),
(62,79,o),
(153,-16,o),
(317,-16,cs)
);
},
{
closed = 1;
nodes = (
(164,229,o),
(101,232,o),
(92,238,cs),
(88,240,o),
(87,249,o),
(87,274,cs),
(87,396,o),
(154,459,o),
(283,459,cs),
(407,459,o),
(475,393,o),
(475,274,cs),
(475,255,o),
(473,241,o),
(470,238,cs),
(464,233,o),
(380,229,o),
(283,229,cs)
);
}
);
width = 564;
}
);
metricLeft = o;
metricRight = o;
unicode = 101;
},
{
color = 4;
glyphname = g;
lastChange = "2023-11-10 19:52:04 +0000";
layers = (
{
anchors = (
{
name = bottom;
pos = (306,-200);
},
{
name = top;
pos = (306,500);
}
);
background = {
shapes = (
{
pos = (6,0);
ref = a;
},
{
closed = 1;
nodes = (
(434,-204,o),
(595,-153,o),
(591,124,cs),
(589,232,o),
(587,319,o),
(591,500,c),
(505,500,l),
(508,441,o),
(511,410,o),
(495,410,cs),
(479,410,o),
(477,428,o),
(443,462,cs),
(415,490,o),
(371,515,o),
(291,516,cs),
(135,518,o),
(37,466,o),
(36,258,cs),
(35,58,o),
(96,-16,o),
(291,-16,cs),
(379,-16,o),
(413,10,o),
(436,36,cs),
(461,63,o),
(472,97,o),
(488,90,cs),
(502,84,o),
(488,53,o),
(466,23,cs),
(432,-25,o),
(387,-51,o),
(291,-53,cs),
(237,-54,o),
(170,-48,o),
(91,-9,c),
(91,-197,l),
(153,-205,o),
(246,-212,o),
(317,-209,cs)
);
},
{
closed = 1;
nodes = (
(168,106,o),
(118,123,o),
(118,175,cs),
(118,227,o),
(168,244,o),
(282,244,cs),
(396,244,o),
(457,227,o),
(457,175,cs),
(457,123,o),
(396,106,o),
(282,106,cs)
);
}
);
};
layerId = m01;
shapes = (
{
closed = 1;
nodes = (
(467,-16,o),
(455,90,o),
(488,90,cs),
(500,90,o),
(502,76,o),
(502,58,cs),
(502,-53,o),
(427,-85,o),
(319,-85,cs),
(272,-85,o),
(214,-79,o),
(131,-61,c),
(131,-209,l),
(170,-220,o),
(220,-226,o),
(281,-227,cs),
(414,-228,o),
(584,-197,o),
(584,61,cs),
(584,265,o),
(576,296,o),
(592,500,c),
(505,500,l),
(506,448,o),
(514,410,o),
(496,410,cs),
(467,410,o),
(465,516,o),
(279,516,cs),
(113,516,o),
(36,431,o),
(36,247,cs),
(36,59,o),
(116,-16,o),
(276,-16,cs)
);
},
{
closed = 1;
nodes = (
(174,106,o),
(120,123,o),
(120,175,cs),
(120,227,o),
(174,244,o),
(288,244,cs),
(402,244,o),
(456,227,o),
(456,175,cs),
(456,123,o),
(402,106,o),
(288,106,cs)
);
}
);
width = 638;
},
{
anchors = (
{
name = bottom;
pos = (294,-260);
},
{
name = top;
pos = (294,480);
}
);
background = {
shapes = (
{
closed = 1;
nodes = (
(409,-16,o),
(451,87,o),
(471,87,cs),
(481,87,o),
(490,58,o),
(485,27,cs),
(458,-127,o),
(380,-181,o),
(256,-181,cs),
(214,-181,o),
(153,-175,o),
(92,-159,c),
(92,-194,l),
(143,-210,o),
(200,-217,o),
(245,-217,cs),
(410,-217,o),
(504,-124,o),
(504,47,cs),
(504,210,o),
(505,318,o),
(510,480,c),
(480,480,l),
(484,408,o),
(481,393,o),
(472,393,cs),
(449,393,o),
(409,496,o),
(275,496,cs),
(145,496,o),
(62,400,o),
(62,240,cs),
(62,80,o),
(145,-16,o),
(275,-16,cs)
);
},
{
closed = 1;
nodes = (
(151,21,o),
(85,106,o),
(85,240,cs),
(85,374,o),
(150,459,o),
(276,459,cs),
(398,459,o),
(483,380,o),
(483,242,cs),
(483,105,o),
(399,21,o),
(275,21,cs)
);
}
);
};
layerId = "60D037D9-62E9-4843-B070-F1594CB0B0D1";
shapes = (
{
closed = 1;
nodes = (
(409,-16,o),
(451,87,o),
(471,87,cs),
(479,87,o),
(482,74,o),
(482,39,cs),
(482,-89,o),
(402,-171,o),
(277,-171,cs),
(239,-171,o),
(185,-164,o),
(125,-143,c),
(125,-182,l),
(175,-198,o),
(223,-207,o),
(271,-207,cs),
(421,-207,o),
(504,-117,o),
(504,47,cs),
(504,210,o),
(505,318,o),
(510,480,c),
(480,480,l),
(484,408,o),
(481,393,o),
(472,393,cs),
(449,393,o),
(409,496,o),
(275,496,cs),
(145,496,o),
(62,400,o),
(62,240,cs),
(62,80,o),
(145,-16,o),
(275,-16,cs)
);
},
{
closed = 1;
nodes = (
(151,21,o),
(85,106,o),
(85,240,cs),
(85,374,o),
(150,459,o),
(276,459,cs),
(398,459,o),
(483,380,o),
(483,242,cs),
(483,105,o),
(399,21,o),
(275,21,cs)
);
}
);
width = 588;
}
);
metricLeft = o;
metricRight = n;
unicode = 103;
},
{
color = 4;
glyphname = h;
lastChange = "2023-11-10 19:52:07 +0000";
layers = (
{
anchors = (
{
name = bottom;
pos = (306,0);
},
{
name = center;
pos = (306,800);
},
{
name = top;
pos = (306,800);
}
);
layerId = m01;
shapes = (
{
closed = 1;
nodes = (
(145,0,l),
(142,83,o),
(141,128,o),
(141,176,cs),
(141,225,o),
(177,233,o),
(303,233,cs),
(429,233,o),
(465,224,o),
(465,176,cs),
(465,111,o),
(465,78,o),
(460,0,c),
(551,0,l),
(548,62,o),
(547,195,o),
(547,356,cs),
(547,477,o),
(460,516,o),
(358,516,cs),
(181,516,o),
(177,410,o),
(152,410,cs),
(138,410,o),
(137,436,o),
(141,740,c),
(54,740,l),
(59,395,o),
(59,345,o),
(54,0,c)
);
}
);
width = 597;
},
{
anchors = (
{
name = bottom;
pos = (254,0);
},
{
name = center;
pos = (254,800);
},
{
name = top;
pos = (254,800);
}
);
layerId = "60D037D9-62E9-4843-B070-F1594CB0B0D1";
shapes = (
{
closed = 1;
nodes = (
(115,0,l),
(112,143,o),
(103,296,o),
(118,337,cs),
(140,398,o),
(204,459,o),
(324,459,cs),
(424,459,o),
(479,417,o),
(479,328,cs),
(479,205,o),
(478,135,o),
(473,0,c),
(505,0,l),
(503,58,o),
(502,167,o),
(502,356,cs),
(502,419,o),
(471,496,o),
(333,496,cs),
(175,496,o),
(139,393,o),
(124,393,cs),
(115,393,o),
(115,407,o),
(115,740,c),
(83,740,l),
(88,394,o),
(88,345,o),
(83,0,c)
);
}
);
width = 583;
}
);
metricLeft = n;
metricRight = n;
unicode = 104;
},
{
color = 4;
glyphname = i;
lastChange = "2023-11-13 17:56:58 +0000";
layers = (
{
anchors = (
{
name = bottom;
pos = (221,0);
}
);
background = {
shapes = (
{
closed = 1;
nodes = (
(395,0,l),
(395,38,o),
(395,57,o),
(395,95,c),
(296,95,l),
(295,253,o),
(297,308,o),
(299,500,c),
(48,500,l),
(49,418,o),
(50,332,o),
(49,250,c),
(105,250,o),
(162,250,o),
(218,250,c),
(220,203,o),
(221,142,o),
(219,95,c),
(161,95,o),
(102,95,o),
(44,95,c),
(44,57,o),
(44,38,o),
(44,0,c)
);
},
{
closed = 1;
nodes = (
(309,636,o),
(338,653,o),
(338,700,cs),
(338,749,o),
(309,766,o),
(226,766,cs),
(143,766,o),
(114,749,o),
(114,700,cs),
(114,653,o),
(143,636,o),
(226,636,cs)
);
}
);
};
layerId = m01;
shapes = (
{
closed = 1;
nodes = (
(395,0,l),
(395,89,l),
(372,87,o),
(352,86,o),
(333,86,cs),
(284,86,o),
(280,94,o),
(280,130,cs),
(280,301,o),
(282,472,o),
(284,500,c),
(60,500,l),
(61,261,l),
(84,262,o),
(119,263,o),
(143,264,cs),
(204,268,o),
(208,260,o),
(208,178,cs),
(208,95,o),
(204,86,o),
(158,86,cs),
(126,86,o),
(83,86,o),
(44,89,c),
(44,0,l)
);
},
{
closed = 1;
nodes = (
(299,636,o),
(328,653,o),
(328,700,cs),
(328,749,o),
(299,766,o),
(216,766,cs),
(133,766,o),
(104,749,o),
(104,700,cs),
(104,653,o),
(133,636,o),
(216,636,cs)
);
}
);
width = 401;
},
{
anchors = (
{
name = bottom;
pos = (223,0);
}
);
guides = (
{
pos = (738,11);
}
);
layerId = "60D037D9-62E9-4843-B070-F1594CB0B0D1";
shapes = (
{
closed = 1;
nodes = (
(412,0,l),
(412,25,l),
(375,25,o),
(338,25,o),
(324,25,cs),
(242,25,o),
(236,36,o),
(236,64,cs),
(236,292,o),
(237,362,o),
(237,480,c),
(49,480,l),
(49,449,l),
(56,450,o),
(85,451,o),
(114,451,cs),
(207,451,o),
(216,443,o),
(216,237,cs),
(216,26,o),
(206,25,o),
(115,25,cs),
(56,25,o),
(98,25,o),
(39,25,c),
(39,0,l)
);
},
{
closed = 1;
nodes = (
(268,653,o),
(300,666,o),
(300,687,cs),
(300,706,o),
(270,716,o),
(207,716,cs),
(144,716,o),
(113,706,o),
(113,687,cs),
(113,666,o),
(146,653,o),
(207,653,cs)
);
}
);
width = 436;
}
);
unicode = 105;
},
{
color = 1;
glyphname = j;
lastChange = "2023-11-14 01:46:45 +0000";
layers = (
{
background = {
shapes = (
{
pos = (35,0);
ref = i;
}
);
};
layerId = m01;
shapes = (
{
closed = 1;
nodes = (
(146,-245,o),
(318,-234,o),
(314,0,cs),
(311,167,o),
(311,333,o),
(314,500,c),
(96,500,l),
(96,261,l),
(140,263,o),
(174,263,o),
(208,263,cs),
(226,263,o),
(237,257,o),
(240,226,cs),
(245,173,o),
(242,87,o),
(240,70,cs),
(228,-36,o),
(88,-64,o),
(10,-6,c),
(10,-203,l)
);
},
{
closed = 1;
nodes = (
(291,636,o),
(320,653,o),
(320,700,cs),
(320,749,o),
(291,766,o),
(208,766,cs),
(125,766,o),
(96,749,o),
(96,700,cs),
(96,653,o),
(125,636,o),
(208,636,cs)
);
}
);
width = 360;
},
{
layerId = "60D037D9-62E9-4843-B070-F1594CB0B0D1";
shapes = (
{
closed = 1;
nodes = (
(146,-245,o),
(318,-234,o),
(314,0,cs),
(311,167,o),
(311,333,o),
(314,500,c),
(96,500,l),
(96,261,l),
(140,263,o),
(174,263,o),
(208,263,cs),
(226,263,o),
(237,257,o),
(240,226,cs),
(245,173,o),
(242,87,o),
(240,70,cs),
(228,-36,o),
(88,-64,o),
(10,-6,c),
(10,-203,l)
);
},
{
closed = 1;
nodes = (
(291,636,o),
(320,653,o),
(320,700,cs),
(320,749,o),
(291,766,o),
(208,766,cs),
(125,766,o),
(96,749,o),
(96,700,cs),
(96,653,o),
(125,636,o),
(208,636,cs)
);
}
);
width = 477;
}
);
unicode = 106;
},
{
color = 9;
glyphname = k;
lastChange = "2023-11-10 20:07:58 +0000";
layers = (
{
anchors = (
{
name = bottom;
pos = (300,0);
},
{
name = top;
pos = (300,800);
}
);
layerId = m01;
width = 600;
},
{
anchors = (
{
name = bottom;
pos = (254,0);
},
{
name = top;
pos = (254,800);
}
);
background = {
shapes = (
{
closed = 1;
nodes = (
(334,290,ls),
(388,290,o),
(397,286,o),
(404,311,cs),
(417,356,o),
(437,429,o),
(455,501,c),
(436,501,l),
(415,418,o),
(402,355,o),
(391,328,cs),
(387,318,o),
(378,309,o),
(333,306,cs),
(282,304,o),
(206,307,o),
(85,307,c),
(86,290,l)
);
},
{
closed = 1;
nodes = (
(89,0,l),
(87,252,l),
(87,328,l),
(93,801,l),
(68,801,l),
(75,534,o),
(75,267,o),
(72,0,c)
);
},
{
closed = 1;
nodes = (
(482,0,l),
(459,114,o),
(436,231,o),
(395,304,c),
(383,290,l),
(415,231,o),
(431,131,o),
(458,0,c)
);
}
);
};
layerId = "60D037D9-62E9-4843-B070-F1594CB0B0D1";
width = 507;
}
);
unicode = 107;
},
{
color = 3;
glyphname = l;
lastChange = "2023-11-13 18:13:44 +0000";
layers = (
{
anchors = (
{
name = bottom;
pos = (213,0);
},
{
name = center;
pos = (213,800);
},
{
name = top;
pos = (213,800);
},
{
name = topright;
pos = (409,800);
}
);
layerId = m01;
shapes = (
{
closed = 1;
nodes = (
(371,0,l),
(371,95,l),
(348,91,o),
(327,89,o),
(312,89,cs),
(274,89,o),
(256,102,o),
(256,130,cs),
(256,541,o),
(258,712,o),
(260,740,c),
(36,740,l),
(37,521,l),
(60,525,o),
(97,527,o),
(115,527,cs),
(184,527,o),
(184,498,o),
(184,324,cs),
(184,98,o),
(184,86,o),
(130,86,cs),
(104,86,o),
(59,89,o),
(20,95,c),
(20,0,l)
);
}
);
width = 377;
},
{
anchors = (
{
name = bottom;
pos = (188,0);
},
{
name = center;
pos = (188,800);
},
{
name = top;
pos = (188,800);
},
{
name = topright;
pos = (390,800);
}
);
layerId = "60D037D9-62E9-4843-B070-F1594CB0B0D1";
shapes = (
{
closed = 1;
nodes = (
(347,0,l),
(347,25,l),
(319,25,o),
(291,25,o),
(259,25,cs),
(198,25,o),
(191,36,o),
(191,64,cs),
(191,435,o),
(192,548,o),
(192,740,c),
(34,740,l),
(34,709,l),
(72,709,o),
(43,709,o),
(119,709,cs),
(160,709,o),
(171,704,o),
(171,408,cs),
(171,43,o),
(169,25,o),
(100,25,cs),
(39,25,o),
(63,25,o),
(24,25,c),
(24,0,l)
);
}
);
width = 371;
}
);
unicode = 108;
},
{
color = 3;
glyphname = m;
lastChange = "2023-11-10 19:33:31 +0000";
layers = (
{
layerId = "60D037D9-62E9-4843-B070-F1594CB0B0D1";
shapes = (
{
closed = 1;
nodes = (
(108,0,l),
(106,85,o),
(106,119,o),
(106,254,cs),
(106,390,o),
(177,459,o),
(297,459,cs),
(393,459,o),
(457,413,o),
(454,275,cs),
(452,183,o),
(451,92,o),
(449,0,c),
(476,0,l),
(475,99,o),
(474,189,o),
(474,288,cs),
(474,403,o),
(555,459,o),
(670,459,cs),
(766,459,o),
(823,413,o),
(820,275,cs),
(818,183,o),
(817,92,o),
(815,0,c),
(842,0,l),
(841,102,o),
(840,194,o),
(840,296,cs),
(840,433,o),
(782,496,o),
(680,496,cs),
(513,496,o),
(497,391,o),
(469,391,cs),
(441,391,o),
(433,496,o),
(301,496,cs),
(164,496,o),
(133,384,o),
(113,384,cs),
(99,384,o),
(107,440,o),
(108,480,c),
(83,480,l),
(86,246,o),
(86,221,o),
(83,0,c)
);
}
);
width = 920;
},
{
background = {
shapes = (
{
pos = (-7,0);
ref = n.ss01;
},
{
closed = 1;
nodes = (
(144,0,l),
(141,67,o),
(139,117,o),
(140,145,cs),
(143,219,o),
(166,233,o),
(306,233,cs),
(446,233,o),
(470,219,o),
(472,145,cs),
(473,117,o),
(468,67,o),
(465,0,c),
(548,0,l),
(545,67,o),
(543,117,o),
(544,145,cs),
(547,219,o),
(570,233,o),
(710,233,cs),
(850,233,o),
(879,219,o),
(876,145,cs),
(875,117,o),
(872,67,o),
(869,0,c),
(959,0,l),
(957,119,o),
(957,210,o),
(957,329,cs),
(957,441,o),
(890,510,o),
(740,515,cs),
(679,517,o),
(613,494,o),
(570,453,cs),
(539,423,o),
(541,409,o),
(529,409,cs),
(512,409,o),
(511,434,o),
(471,476,cs),
(439,509,o),
(376,519,o),
(322,515,cs),
(260,510,o),
(214,481,o),
(188,453,cs),
(166,430,o),
(159,410,o),
(141,410,cs),
(126,410,o),
(134,481,o),
(134,500,c),
(54,500,l),
(58,267,o),
(58,233,o),
(54,0,c)
);
}
);
};
layerId = m01;
shapes = (
{
closed = 1;
nodes = (
(144,0,l),
(140,81,o),
(139,121,o),
(140,145,cs),
(143,220,o),
(168,233,o),
(306,233,cs),
(447,233,o),
(472,220,o),
(472,145,cs),
(472,116,o),
(471,89,o),
(465,0,c),
(548,0,l),
(544,84,o),
(543,122,o),
(544,145,cs),
(547,220,o),
(572,233,o),
(710,233,cs),
(848,233,o),
(876,218,o),
(876,145,cs),
(876,127,o),
(875,109,o),
(869,0,c),
(959,0,l),
(957,79,o),
(957,129,o),
(957,329,cs),
(957,447,o),
(883,509,o),
(730,512,cs),
(551,515,o),
(550,409,o),
(516,409,cs),
(484,409,o),
(512,515,o),
(336,515,cs),
(173,515,o),
(181,410,o),
(141,410,cs),
(133,410,o),
(132,420,o),
(134,500,c),
(54,500,l),
(58,267,o),
(58,233,o),
(54,0,c)
);
}
);
width = 1005;
}
);
metricLeft = n;
metricRight = n;
unicode = 109;
},
{
color = 5;
glyphname = n;
lastChange = "2023-11-10 19:21:14 +0000";
layers = (
{
anchors = (
{
name = bottom;
pos = (304,0);
},
{
name = top;
pos = (304,500);
}
);
background = {
shapes = (
{
pos = (640,0);
ref = a;
scale = (-1,1);
}
);
};
layerId = m01;
shapes = (
{
closed = 1;
nodes = (
(145,0,l),
(142,83,o),
(141,128,o),
(141,176,cs),
(141,225,o),
(177,233,o),
(303,233,cs),
(429,233,o),
(465,224,o),
(465,176,cs),
(465,111,o),
(465,78,o),
(460,0,c),
(551,0,l),
(548,62,o),
(547,195,o),
(547,356,cs),
(547,477,o),
(460,516,o),
(358,516,cs),
(181,516,o),
(177,410,o),
(152,410,cs),
(138,410,o),
(137,417,o),
(141,500,c),
(54,500,l),
(59,267,o),
(59,233,o),
(54,0,c)
);
}
);
width = 597;
},
{
anchors = (
{
name = bottom;
pos = (294,0);
},
{
name = top;
pos = (294,480);
}
);
background = {
shapes = (
{
closed = 1;
nodes = (
(107,0,l),
(105,66,o),
(105,80,o),
(105,254,cs),
(105,381,o),
(184,459,o),
(313,459,cs),
(435,459,o),
(491,401,o),
(491,275,cs),
(491,189,o),
(489,104,o),
(486,0,c),
(515,0,l),
(513,103,o),
(513,161,o),
(513,296,cs),
(513,426,o),
(449,496,o),
(329,496,cs),
(209,496,o),
(117,429,o),
(105,333,c),
(105,418,o),
(107,447,o),
(107,480,c),
(78,480,l),
(81,246,o),
(81,221,o),
(78,0,c)
);
}
);
};
layerId = "60D037D9-62E9-4843-B070-F1594CB0B0D1";
shapes = (
{
closed = 1;
nodes = (
(115,0,l),
(112,143,o),
(103,296,o),
(118,337,cs),
(140,398,o),
(204,459,o),
(324,459,cs),
(424,459,o),
(479,417,o),
(479,328,cs),
(479,205,o),
(478,135,o),
(473,0,c),
(505,0,l),
(503,58,o),
(502,167,o),
(502,356,cs),
(502,419,o),
(471,496,o),
(333,496,cs),
(175,496,o),
(139,393,o),
(124,393,cs),
(115,393,o),
(115,396,o),
(115,480,c),
(83,480,l),
(88,256,o),
(88,224,o),
(83,0,c)
);
}
);
width = 583;
}
);
unicode = 110;
},
{
color = 5;
glyphname = o;
lastChange = "2023-11-10 19:33:23 +0000";
layers = (
{
anchors = (
{
name = bottom;
pos = (300,0);
},
{
name = center;
pos = (300,250);
},
{
name = ogonek;
pos = (527,10);
},
{
name = top;
pos = (300,500);
},
{
name = topright;
pos = (564,500);
}
);
layerId = m01;
shapes = (
{
closed = 1;
nodes = (
(482,-16,o),
(564,65,o),
(564,246,cs),
(564,431,o),
(480,516,o),
(300,516,cs),
(121,516,o),
(36,430,o),
(36,246,cs),
(36,65,o),
(118,-16,o),
(300,-16,cs)
);
},
{
closed = 1;
nodes = (
(167,98,o),
(119,116,o),
(119,165,cs),
(119,216,o),
(167,234,o),
(300,234,cs),
(432,234,o),
(481,215,o),
(481,165,cs),
(481,116,o),
(434,98,o),
(300,98,cs)
);
}
);
width = 600;
},
{
anchors = (
{
name = bottom;
pos = (289,0);
},
{
name = center;
pos = (289,239);
},
{
name = ogonek;
pos = (525,10);
},
{
name = top;
pos = (289,480);
},
{
name = topright;
pos = (564,480);
}
);
guides = (
{
angle = 90;
pos = (289,239);
showMeasurement = 1;
},
{
pos = (289,239);
showMeasurement = 1;
}
);
layerId = "60D037D9-62E9-4843-B070-F1594CB0B0D1";
shapes = (
{
closed = 1;
nodes = (
(438,-16,o),
(516,92,o),
(516,240,cs),
(516,388,o),
(438,496,o),
(289,496,cs),
(140,496,o),
(62,388,o),
(62,240,cs),
(62,92,o),
(140,-16,o),
(289,-16,cs)
);
},
{
closed = 1;
nodes = (
(154,21,o),
(83,106,o),
(83,240,cs),
(83,374,o),
(154,459,o),
(289,459,cs),
(424,459,o),
(495,374,o),
(495,240,cs),
(495,106,o),
(424,21,o),
(289,21,cs)
);
}
);
width = 578;
}
);
unicode = 111;
},
{
color = 4;
glyphname = p;
lastChange = "2023-11-10 19:33:07 +0000";
layers = (
{
anchors = (
{
name = bottom;
pos = (414,0);
},
{
name = top;
pos = (414,500);
}
);
background = {
shapes = (
{
pos = (119,0);
ref = b;
}
);
};
layerId = m01;
shapes = (
{
closed = 1;
nodes = (
(533,-16,o),
(610,60,o),
(610,250,cs),
(610,431,o),
(530,516,o),
(368,516,cs),
(169,516,o),
(190,410,o),
(150,410,cs),
(133,410,o),
(140,422,o),
(141,500,c),
(54,500,l),
(58,254,o),
(58,6,o),
(54,-240,c),
(144,-240,l),
(143,-49,o),
(136,90,o),
(159,90,cs),
(190,90,o),
(169,-16,o),
(368,-16,cs)
);
},
{
closed = 1;
nodes = (
(244,106,o),
(190,123,o),
(190,175,cs),
(190,227,o),
(244,244,o),
(358,244,cs),
(472,244,o),
(526,227,o),
(526,175,cs),
(526,123,o),
(472,106,o),
(358,106,cs)
);
}
);
width = 646;
},
{
anchors = (
{
name = bottom;
pos = (297,0);
},
{
name = top;
pos = (297,480);
}
);
layerId = "60D037D9-62E9-4843-B070-F1594CB0B0D1";
shapes = (
{
closed = 1;
nodes = (
(448,-16,o),
(531,80,o),
(531,240,cs),
(531,400,o),
(448,496,o),
(318,496,cs),
(184,496,o),
(144,393,o),
(121,393,cs),
(112,393,o),
(109,409,o),
(113,488,c),
(83,488,l),
(88,462,o),
(88,277,o),
(83,-252,c),
(113,-252,l),
(109,28,o),
(112,87,o),
(121,87,cs),
(144,87,o),
(184,-16,o),
(318,-16,cs)
);
},
{
closed = 1;
nodes = (
(194,21,o),
(110,105,o),
(110,240,cs),
(110,381,o),
(195,459,o),
(318,459,cs),
(443,459,o),
(508,374,o),
(508,240,cs),
(508,106,o),
(442,21,o),
(318,21,cs)
);
}
);
width = 593;
}
);
metricLeft = n;
metricRight = o;
unicode = 112;
},
{
color = 4;
glyphname = q;
lastChange = "2023-11-10 19:33:07 +0000";
layers = (
{
anchors = (
{
name = bottom;
pos = (279,0);
},
{
name = center;
pos = (279,250);
},
{
name = top;
pos = (279,800);
},
{
name = topright;
pos = (548,800);
}
);
layerId = m01;
shapes = (
{
closed = 1;
nodes = (
(477,-16,o),
(456,90,o),
(487,90,cs),
(510,90,o),
(503,-49,o),
(502,-240,c),
(592,-240,l),
(588,6,o),
(588,254,o),
(592,500,c),
(505,500,l),
(506,422,o),
(513,410,o),
(496,410,cs),
(456,410,o),
(477,516,o),
(278,516,cs),
(116,516,o),
(36,431,o),
(36,250,cs),
(36,60,o),
(113,-16,o),
(278,-16,cs)
);
},
{
closed = 1;
nodes = (
(174,106,o),
(120,123,o),
(120,175,cs),
(120,227,o),
(174,244,o),
(288,244,cs),
(402,244,o),
(456,227,o),
(456,175,cs),
(456,123,o),
(402,106,o),
(288,106,cs)
);
}
);
width = 638;
},
{
anchors = (
{
name = bottom;
pos = (402,0);
},
{
name = center;
pos = (301,240);
},
{
name = top;
pos = (402,480);
},
{
name = topright;
pos = (536,800);
}
);
layerId = "60D037D9-62E9-4843-B070-F1594CB0B0D1";
shapes = (
{
closed = 1;
nodes = (
(409,-16,o),
(449,87,o),
(472,87,cs),
(481,87,o),
(484,27,o),
(480,-260,c),
(510,-260,l),
(505,277,o),
(505,462,o),
(510,480,c),
(480,480,l),
(484,408,o),
(481,393,o),
(472,393,cs),
(449,393,o),
(409,496,o),
(275,496,cs),
(145,496,o),
(62,400,o),
(62,240,cs),
(62,80,o),
(145,-16,o),
(275,-16,cs)
);
},
{
closed = 1;
nodes = (
(151,21,o),
(85,106,o),
(85,240,cs),
(85,374,o),
(150,459,o),
(275,459,cs),
(398,459,o),
(483,381,o),
(483,240,cs),
(483,105,o),
(399,21,o),
(275,21,cs)
);
}
);
width = 588;
}
);
metricLeft = o;
metricRight = n;
unicode = 113;
},
{
color = 4;
glyphname = r;
lastChange = "2023-11-10 19:51:49 +0000";
layers = (
{
anchors = (
{
name = bottom;
pos = (282,0);
},
{
name = top;
pos = (282,500);
}
);
background = {
shapes = (
{
pos = (-1,0);
ref = n.ss01;
}
);
};
layerId = m01;
shapes = (
{
closed = 1;
nodes = (
(135,0,l),
(133,58,o),
(131,117,o),
(131,175,cs),
(131,226,o),
(154,233,o),
(313,233,cs),
(352,233,o),
(382,232,o),
(404,229,c),
(404,509,l),
(377,514,o),
(362,516,o),
(329,516,cs),
(198,516,o),
(171,410,o),
(151,410,cs),
(132,410,o),
(139,436,o),
(140,500,c),
(54,500,l),
(58,267,o),
(58,233,o),
(54,0,c)
);
}
);
width = 422;
},
{
anchors = (
{
name = bottom;
pos = (279,0);
},
{
name = top;
pos = (279,480);
}
);
layerId = "60D037D9-62E9-4843-B070-F1594CB0B0D1";
shapes = (
{
closed = 1;
nodes = (
(115,0,l),
(112,134,o),
(104,278,o),
(118,317,cs),
(141,379,o),
(204,463,o),
(329,463,cs),
(336,463,o),
(347,462,o),
(355,460,c),
(357,496,l),
(348,499,o),
(339,500,o),
(329,500,cs),
(175,500,o),
(139,373,o),
(124,373,cs),
(115,373,o),
(115,376,o),
(115,480,c),
(83,480,l),
(88,256,o),
(88,224,o),
(83,0,c)
);
}
);
width = 384;
}
);
metricLeft = n;
unicode = 114;
},
{
color = 9;
glyphname = s;
lastChange = "2023-11-10 20:07:30 +0000";
layers = (
{
anchors = (
{
name = bottom;
pos = (270,0);
},
{
name = top;
pos = (270,508);
}
);
layerId = m01;
shapes = (
{
closed = 1;
nodes = (
(391,-16,o),
(472,32,o),
(472,114,cs),
(472,180,o),
(432,206,o),
(291,231,cs),
(217,244,o),
(191,255,o),
(191,273,cs),
(191,285,o),
(208,289,o),
(261,289,cs),
(312,289,o),
(359,285,o),
(460,274,c),
(460,502,l),
(383,511,o),
(337,514,o),
(300,514,cs),
(134,514,o),
(36,449,o),
(36,339,cs),
(36,255,o),
(87,218,o),
(241,190,cs),
(311,177,o),
(345,162,o),
(345,145,cs),
(345,131,o),
(324,125,o),
(268,125,cs),
(213,125,o),
(152,135,o),
(52,159,c),
(49,3,l),
(99,-10,o),
(163,-16,o),
(251,-16,cs)
);
}
);
width = 508;
},
{
anchors = (
{
name = bottom;
pos = (255,0);
},
{
name = top;
pos = (255,480);
}
);
layerId = "60D037D9-62E9-4843-B070-F1594CB0B0D1";
shapes = (
{
closed = 1;
nodes = (
(347,-16,o),
(413,31,o),
(413,108,cs),
(413,172,o),
(375,199,o),
(230,236,cs),
(129,263,o),
(92,295,o),
(92,356,cs),
(92,416,o),
(153,458,o),
(239,458,cs),
(284,458,o),
(369,452,o),
(418,439,c),
(418,480,l),
(353,493,o),
(298,496,o),
(246,496,cs),
(134,496,o),
(62,441,o),
(62,356,cs),
(62,288,o),
(106,249,o),
(218,217,cs),
(356,179,o),
(389,146,o),
(389,105,cs),
(389,53,o),
(338,21,o),
(227,21,cs),
(165,21,o),
(106,31,o),
(68,46,c),
(68,4,l),
(117,-10,o),
(170,-16,o),
(238,-16,cs)
);
}
);
width = 480;
}
);
metricLeft = o;
metricRight = o;
unicode = 115;
},
{
color = 9;
glyphname = t;
lastChange = "2023-11-14 01:47:19 +0000";
layers = (
{
anchors = (
{
name = bottom;
pos = (237,0);
},
{
name = center;
pos = (237,250);
},
{
name = top;
pos = (237,500);
},
{
name = topright;
pos = (394,650);
}
);
background = {
shapes = (
{
closed = 1;
nodes = (
(328,-10,o),
(386,5,o),
(421,27,c),
(421,227,l),
(386,208,o),
(317,188,o),
(249,188,cs),
(134,188,o),
(107,215,o),
(106,265,c),
(108,484,l),
(111,630,l),
(31,630,l),
(31,484,l),
(29,277,l),
(15,56,o),
(109,-10,o),
(249,-10,cs)
);
},
{
closed = 1;
nodes = (
(47,500,l),
(-46,500,l),
(-46,290,l),
(44,289,l)
);
},
{
closed = 1;
nodes = (
(451,290,l),
(451,500,l),
(92,500,l),
(91,290,l)
);
}
);
};
layerId = m01;
shapes = (
{
closed = 1;
nodes = (
(363,224,o),
(332,210,o),
(286,210,cs),
(235,210,o),
(204,230,o),
(191,256,cs),
(183,272,o),
(193,274,o),
(199,274,cs),
(210,274,o),
(379,274,o),
(389,274,c),
(389,500,l),
(190,500,l),
(192,634,l),
(112,634,l),
(112,500,l),
(30,500,l),
(30,274,l),
(44,274,o),
(89,274,o),
(105,274,cs),
(111,274,o),
(122,270,o),
(116,255,cs),
(44,82,o),
(161,-8,o),
(244,-8,cs),
(313,-8,o),
(347,4,o),
(373,20,c),
(376,232,l)
);
}
);
width = 424;
},
{
anchors = (
{
name = bottom;
pos = (240,0);
},
{
name = center;
pos = (240,240);
},
{
name = top;
pos = (240,480);
},
{
name = topright;
pos = (464,800);
}
);
layerId = "60D037D9-62E9-4843-B070-F1594CB0B0D1";
shapes = (
{
closed = 1;
nodes = (
(363,224,o),
(332,210,o),
(286,210,cs),
(235,210,o),
(204,230,o),
(191,256,cs),
(183,272,o),
(193,274,o),
(199,274,cs),
(210,274,o),
(379,274,o),
(389,274,c),
(389,500,l),
(190,500,l),
(192,634,l),
(112,634,l),
(112,500,l),
(30,500,l),
(30,274,l),
(44,274,o),
(89,274,o),
(105,274,cs),
(111,274,o),
(122,270,o),
(116,255,cs),
(44,82,o),
(161,-8,o),
(244,-8,cs),
(313,-8,o),
(347,4,o),
(373,20,c),
(376,232,l)
);
}
);
width = 476;
}
);
unicode = 116;
},
{
color = 3;
glyphname = u;
lastChange = "2023-11-10 19:33:42 +0000";
layers = (
{
anchors = (
{
name = bottom;
pos = (286,0);
},
{
name = ogonek;
pos = (509,10);
},
{
name = top;
pos = (286,500);
},
{
name = topright;
pos = (545,500);
}
);
background = {
shapes = (
{
angle = 180;
pos = (563,500);
ref = o;
}
);
};
layerId = m01;
shapes = (
{
closed = 1;
nodes = (
(458,-16,o),
(520,40,o),
(521,207,cs),
(521,305,o),
(522,402,o),
(522,500,c),
(444,500,l),
(446,443,o),
(447,387,o),
(449,330,cs),
(451,279,o),
(393,265,o),
(279,265,cs),
(165,265,o),
(107,279,o),
(109,330,cs),
(111,387,o),
(112,443,o),
(114,500,c),
(36,500,l),
(36,404,o),
(37,309,o),
(37,213,cs),
(38,42,o),
(99,-16,o),
(279,-16,cs)
);
}
);
width = 558;
},
{
anchors = (
{
name = bottom;
pos = (260,-16);
},
{
name = ogonek;
pos = (487,10);
},
{
name = top;
pos = (259,480);
},
{
name = topright;
pos = (524,480);
}
);
layerId = "60D037D9-62E9-4843-B070-F1594CB0B0D1";
shapes = (
{
closed = 1;
nodes = (
(426,-16,o),
(452,76,o),
(455,243,cs),
(456,299,o),
(455,396,o),
(458,479,c),
(429,479,l),
(431,427,o),
(435,319,o),
(435,260,cs),
(435,75,o),
(396,21,o),
(260,21,cs),
(124,21,o),
(85,75,o),
(85,261,cs),
(85,313,o),
(88,400,o),
(91,479,c),
(62,479,l),
(65,396,o),
(64,299,o),
(65,243,cs),
(68,76,o),
(94,-16,o),
(260,-16,cs)
);
}
);
width = 520;
}
);
metricLeft = o;
metricRight = o;
unicode = 117;
},
{
color = 4;
glyphname = v;
lastChange = "2023-11-13 17:55:57 +0000";
layers = (
{
anchors = (
{
name = bottom;
pos = (254,0);
},
{
name = top;
pos = (254,500);
}
);
background = {
shapes = (
{
closed = 1;
nodes = (
(325,0,ls),
(386,0,o),
(404,-8,o),
(432,108,cs),
(457,210,o),
(441,143,o),
(464,245,cs),
(521,500,l),
(441,500,l),
(396,305,ls),
(392,286,o),
(378,280,o),
(362,278,cs),
(338,275,o),
(295,274,o),
(253,274,cs),
(218,275,o),
(184,276,o),
(161,278,cs),
(142,280,o),
(134,289,o),
(127,315,cs),
(82,500,l),
(2,500,l),
(59,260,ls),
(82,150,o),
(69,210,o),
(92,109,cs),
(119,-8,o),
(134,0,o),
(199,0,cs)
);
}
);
};
layerId = m01;
shapes = (
{
closed = 1;
nodes = (
(303,0,ls),
(370,0,o),
(389,24,o),
(410,109,cs),
(506,500,l),
(416,500,l),
(380,315,ls),
(374,284,o),
(358,274,o),
(263,274,cs),
(170,274,o),
(153,284,o),
(147,315,cs),
(110,500,l),
(20,500,l),
(115,109,ls),
(136,24,o),
(155,0,o),
(222,0,cs)
);
}
);
width = 526;
},
{
anchors = (
{
name = bottom;
pos = (270,0);
},
{
name = top;
pos = (270,480);
}
);
background = {
shapes = (
{
closed = 1;
nodes = (
(308,0,ls),
(362,0,o),
(371,-4,o),
(378,21,cs),
(499,480,l),
(478,480,l),
(365,38,ls),
(358,10,o),
(352,17,o),
(267,17,cs),
(187,17,o),
(179,10,o),
(172,38,cs),
(61,480,l),
(40,480,l),
(158,23,ls),
(165,-3,o),
(181,0,o),
(231,0,cs)
);
}
);
};
layerId = "60D037D9-62E9-4843-B070-F1594CB0B0D1";
shapes = (
{
closed = 1;
nodes = (
(279,0,ls),
(339,0,o),
(345,1,o),
(352,23,cs),
(500,480,l),
(467,480,l),
(331,46,ls),
(327,33,o),
(321,32,o),
(270,32,cs),
(219,32,o),
(213,33,o),
(209,46,cs),
(73,480,l),
(40,480,l),
(188,23,ls),
(195,1,o),
(201,0,o),
(261,0,cs)
);
}
);
width = 539;
}
);
unicode = 118;
},
{
color = 0;
glyphname = w;
lastChange = "2023-11-06 17:42:27 +0000";
layers = (
{
anchors = (
{
name = bottom;
pos = (475,0);
},
{
name = top;
pos = (475,500);
}
);
background = {
shapes = (
{
closed = 1;
nodes = (
(649,0,l),
(759,0,ls),
(813,0,o),
(831,-8,o),
(858,109,cs),
(881,210,o),
(869,150,o),
(892,260,c),
(838,343,l),
(830,315,ls),
(823,289,o),
(815,280,o),
(796,278,cs),
(773,276,o),
(766,275,o),
(647,276,c),
(598,276,o),
(605,275,o),
(576,278,cs),
(556,280,o),
(547,288,o),
(540,315,c),
(484,245,l),
(506,143,o),
(490,210,o),
(512,108,cs),
(537,-8,o),
(552,0,o),
(608,0,cs)
);
},
{
closed = 1;
nodes = (
(290,0,l),
(331,0,ls),
(387,0,o),
(402,-8,o),
(427,108,cs),
(449,210,o),
(433,143,o),
(455,245,c),
(399,315,l),
(392,288,o),
(383,280,o),
(363,278,cs),
(334,275,o),
(341,276,o),
(298,276,c),
(204,275,o),
(191,276,o),
(168,278,cs),
(149,280,o),
(141,289,o),
(134,315,cs),
(126,343,l),
(72,260,l),
(95,150,o),
(83,210,o),
(106,109,cs),
(133,-8,o),
(151,0,o),
(205,0,cs)
);
},
{
closed = 1;
nodes = (
(135,260,l),
(134,315,l),
(95,500,l),
(15,500,l),
(72,260,l)
);
},
{
closed = 1;
nodes = (
(509,500,l),
(429,500,l),
(396,304,l),
(455,245,l)
);
},
{
closed = 1;
nodes = (
(543,304,l),
(510,500,l),
(430,500,l),
(484,245,l)
);
},
{
closed = 1;
nodes = (
(892,260,l),
(949,500,l),
(869,500,l),
(830,315,l),
(829,260,l)
);
}
);
};
layerId = m01;
width = 949;
},
{
anchors = (
{
name = bottom;
pos = (406,0);
},
{
name = top;
pos = (406,480);
}
);
layerId = "60D037D9-62E9-4843-B070-F1594CB0B0D1";
width = 812;
}
);
unicode = 119;
},
{
color = 0;
glyphname = x;
lastChange = "2023-11-10 19:33:39 +0000";
layers = (
{
background = {
shapes = (
{
closed = 1;
nodes = (
(425,130,ls),
(499,130,o),
(509,138,o),
(532,239,cs),
(592,500,l),
(510,500,l),
(497,445,ls),
(487,405,o),
(481,404,o),
(361,404,cs),
(263,404,ls),
(143,404,o),
(137,405,o),
(127,445,cs),
(114,500,l),
(32,500,l),
(92,239,ls),
(115,138,o),
(125,130,o),
(199,130,cs)
);
},
{
closed = 1;
nodes = (
(391,87,ls),
(452,87,o),
(457,85,o),
(473,59,cs),
(510,0,l),
(592,0,l),
(532,99,ls),
(509,137,o),
(499,140,o),
(425,140,cs),
(199,140,ls),
(125,140,o),
(115,137,o),
(92,99,cs),
(32,0,l),
(114,0,l),
(151,59,ls),
(167,85,o),
(172,87,o),
(233,87,cs)
);
}
);
};
layerId = m01;
width = 624;
},
{
layerId = "60D037D9-62E9-4843-B070-F1594CB0B0D1";
width = 600;
}
);
unicode = 120;
},
{
color = 6;
glyphname = a.001;
lastChange = "2023-11-10 16:38:14 +0000";
layers = (
{
anchors = (
{
name = bottom;
pos = (298,0);
},
{
name = ogonek;
pos = (523,10);
},
{
name = top;
pos = (298,500);
}
);
layerId = m01;
shapes = (
{
closed = 1;
nodes = (
(472,-16,o),
(474,90,o),
(503,90,cs),
(519,90,o),
(509,18,o),
(507,0,c),
(597,0,l),
(593,233,o),
(593,267,o),
(597,500,c),
(510,500,l),
(512,482,o),
(522,410,o),
(506,410,cs),
(474,410,o),
(470,516,o),
(295,516,cs),
(131,516,o),
(53,431,o),
(53,250,cs),
(53,60,o),
(131,-16,o),
(295,-16,cs)
);
},
{
closed = 1;
nodes = (
(191,106,o),
(137,123,o),
(137,175,cs),
(137,227,o),
(191,244,o),
(305,244,cs),
(419,244,o),
(473,227,o),
(473,175,cs),
(473,123,o),
(419,106,o),
(305,106,cs)
);
}
);
width = 617;
},
{
anchors = (
{
name = bottom;
pos = (332,0);
},
{
name = ogonek;
pos = (532,10);
},
{
name = top;
pos = (314,509);
}
);
background = {
shapes = (
{
pos = (-9,0);
ref = o;
}
);
};
layerId = "60D037D9-62E9-4843-B070-F1594CB0B0D1";
shapes = (
{
closed = 1;
nodes = (
(444,-16,o),
(479,86,o),
(493,123,c),
(493,74,o),
(493,78,o),
(492,0,c),
(515,-1,l),
(512,226,o),
(514,253,o),
(517,480,c),
(494,480,l),
(494,406,o),
(494,400,o),
(494,336,c),
(480,414,o),
(413,497,o),
(296,497,cs),
(106,497,o),
(60,357,o),
(60,252,cs),
(60,146,o),
(89,-16,o),
(290,-16,cs)
);
},
{
closed = 1;
nodes = (
(114,0,o),
(80,146,o),
(80,252,cs),
(80,357,o),
(135,453,o),
(290,453,cs),
(445,453,o),
(492,357,o),
(492,252,cs),
(492,146,o),
(457,6,o),
(290,3,cs)
);
}
);
width = 597;
}
);
},
{
color = 6;
glyphname = m.alt;
lastChange = "2023-11-10 16:38:14 +0000";
layers = (
{
anchors = (
{
name = bottom;
pos = (472,0);
},
{
name = top;
pos = (472,500);
}
);
background = {
shapes = (
{
closed = 1;
nodes = (
(424,0,l),
(479,0,l),
(478,255,l),
(429,196,l)
);
},
{
closed = 1;
nodes = (
(20,0,l),
(100,0,l),
(95,193,l),
(96,500,l),
(20,500,l)
);
},
{
closed = 1;
nodes = (
(95,167,l),
(95,193,ls),
(95,220,o),
(110,228,o),
(129,230,cs),
(180,235,o),
(351,235,o),
(395,230,cs),
(414,228,o),
(429,220,o),
(429,193,c),
(471,116,l),
(481,208,o),
(481,301,o),
(471,393,cs),
(464,458,o),
(430,508,o),
(333,508,cs),
(332,508,l),
(230,508,ls),
(133,508,o),
(99,458,o),
(92,393,cs),
(82,301,o),
(82,208,o),
(92,116,c)
);
},
{
closed = 1;
nodes = (
(455,255,l),
(454,0,l),
(509,0,l),
(504,196,l)
);
},
{
closed = 1;
nodes = (
(837,500,l),
(838,193,l),
(833,0,l),
(913,0,l),
(913,500,l)
);
},
{
closed = 1;
nodes = (
(851,208,o),
(851,301,o),
(841,393,cs),
(834,458,o),
(800,508,o),
(703,508,cs),
(601,508,l),
(600,508,ls),
(503,508,o),
(469,458,o),
(462,393,cs),
(452,301,o),
(452,208,o),
(462,116,c),
(504,193,l),
(504,220,o),
(519,228,o),
(538,230,cs),
(582,235,o),
(753,235,o),
(804,230,cs),
(823,228,o),
(838,220,o),
(838,193,cs),
(838,167,l),
(841,116,l)
);
}
);
};
layerId = m01;
shapes = (
{
closed = 1;
nodes = (
(100,0,l),
(95,193,ls),
(95,250,o),
(212,234,o),
(263,234,cs),
(313,234,o),
(427,249,o),
(429,195,c),
(424,0,l),
(509,0,l),
(504,195,l),
(506,250,o),
(623,234,o),
(672,234,cs),
(724,234,o),
(838,249,o),
(838,193,cs),
(833,0,l),
(913,0,l),
(913,500,l),
(837,500,l),
(837,416,l),
(825,469,o),
(788,508,o),
(652,508,cs),
(516,508,o),
(480,471,o),
(467,419,c),
(453,471,o),
(417,508,o),
(282,508,cs),
(145,508,o),
(108,469,o),
(96,416,c),
(96,500,l),
(20,500,l),
(20,0,l)
);
}
);
width = 943;
},
{
anchors = (
{
name = bottom;
pos = (452,0);
},
{
name = top;
pos = (452,480);
}
);
layerId = "60D037D9-62E9-4843-B070-F1594CB0B0D1";
shapes = (
{
closed = 1;
nodes = (
(71,0,l),
(67,230,ls),
(70,415,o),
(56,466,o),
(248,466,cs),
(453,471,o),
(434,388,o),
(434,196,cs),
(429,0,l),
(454,0,l),
(449,196,ls),
(449,390,o),
(433,471,o),
(632,466,cs),
(823,466,o),
(813,421,o),
(816,230,cs),
(812,0,l),
(833,0,l),
(833,500,l),
(815,500,l),
(815,436,l),
(799,479,o),
(772,508,o),
(634,508,cs),
(511,508,o),
(472,500,o),
(445,392,c),
(428,497,o),
(364,508,o),
(250,508,cs),
(111,508,o),
(84,479,o),
(68,436,c),
(68,500,l),
(50,500,l),
(50,0,l)
);
}
);
width = 903;
}
);
},
{
glyphname = n.alt;
lastChange = "2023-11-10 16:38:14 +0000";
layers = (
{
layerId = "60D037D9-62E9-4843-B070-F1594CB0B0D1";
shapes = (
{
closed = 1;
nodes = (
(105,0,l),
(100,193,ls),
(100,220,o),
(115,228,o),
(134,230,cs),
(185,235,o),
(391,235,o),
(435,230,cs),
(454,228,o),
(468,220,o),
(469,195,c),
(464,0,l),
(544,0,l),
(543,223,ls),
(544,280,o),
(542,337,o),
(536,393,cs),
(529,458,o),
(495,508,o),
(398,508,cs),
(235,508,ls),
(150,508,o),
(113,469,o),
(101,416,c),
(101,500,l),
(25,500,l),
(25,0,l)
);
}
);
width = 600;
},
{
layerId = m01;
shapes = (
{
closed = 1;
nodes = (
(105,0,l),
(100,193,ls),
(100,220,o),
(115,228,o),
(134,230,cs),
(185,235,o),
(391,235,o),
(435,230,cs),
(454,228,o),
(468,220,o),
(469,195,c),
(464,0,l),
(544,0,l),
(543,223,ls),
(544,280,o),
(542,337,o),
(536,393,cs),
(529,458,o),
(495,508,o),
(398,508,cs),
(235,508,ls),
(150,508,o),
(113,469,o),
(101,416,c),
(101,500,l),
(25,500,l),
(25,0,l)
);
}
);
width = 600;
}
);
},
{
color = 4;
glyphname = f.001;
layers = (
{
background = {
shapes = (
{
closed = 1;
nodes = (
(109,0,l),
(106,306,l),
(104,484,l),
(110,578,o),
(137,601,o),
(247,601,cs),
(315,601,o),
(384,581,o),
(419,562,c),
(419,762,l),
(384,784,o),
(326,799,o),
(247,799,cs),
(111,799,o),
(2,751,o),
(29,457,c),
(29,0,l)
);
},
{
closed = 1;
nodes = (
(397,250,l),
(397,460,l),
(-48,460,l),
(-48,250,l)
);
}
);
};
layerId = m01;
shapes = (
{
closed = 1;
nodes = (
(369,0,l),
(369,93,l),
(339,90,o),
(312,89,o),
(287,89,cs),
(236,89,o),
(214,110,o),
(214,158,cs),
(215,239,o),
(220,246,o),
(279,246,cs),
(328,246,o),
(387,244,o),
(422,240,c),
(423,480,l),
(44,480,l),
(45,240,l),
(66,244,o),
(79,246,o),
(97,246,cs),
(139,246,o),
(142,241,o),
(142,172,cs),
(142,94,o),
(139,86,o),
(112,86,cs),
(93,86,o),
(69,89,o),
(48,95,c),
(48,0,l)
);
},
{
closed = 1;
nodes = (
(216,484,l),
(221,579,o),
(243,601,o),
(329,601,cs),
(387,601,o),
(459,585,o),
(501,562,c),
(501,762,l),
(463,786,o),
(402,799,o),
(329,799,cs),
(175,799,o),
(119,697,o),
(141,457,c),
(216,447,l)
);
}
);
width = 477;
},
{
background = {
shapes = (
{
pos = (24,788);
ref = t;
scale = (1,-1);
}
);
};
layerId = "60D037D9-62E9-4843-B070-F1594CB0B0D1";
shapes = (
{
closed = 1;
nodes = (
(339,0,l),
(339,25,l),
(310,25,o),
(280,25,o),
(251,25,cs),
(196,25,o),
(190,26,o),
(190,237,cs),
(190,449,o),
(195,450,o),
(252,450,cs),
(312,450,o),
(373,449,o),
(387,448,c),
(387,480,l),
(51,480,l),
(51,448,l),
(61,449,o),
(93,450,o),
(126,450,cs),
(165,450,o),
(168,449,o),
(168,237,cs),
(168,26,o),
(160,25,o),
(87,25,cs),
(71,25,o),
(55,25,o),
(39,25,c),
(39,0,l)
);
},
{
closed = 1;
nodes = (
(189,480,l),
(181,690,o),
(262,747,o),
(355,747,cs),
(423,747,o),
(447,736,o),
(485,720,c),
(485,756,l),
(448,775,o),
(407,783,o),
(352,783,cs),
(253,783,o),
(149,727,o),
(167,452,c),
(189,444,l)
);
}
);
width = 437;
}
);
metricLeft = i;
},
{
color = 5;
glyphname = n.ss01;
lastChange = "2023-11-10 17:59:38 +0000";
layers = (
{
anchors = (
{
name = bottom;
pos = (304,0);
},
{
name = top;
pos = (304,500);
}
);
background = {
shapes = (
{
pos = (640,0);
ref = a;
scale = (-1,1);
}
);
};
layerId = m01;
shapes = (
{
closed = 1;
nodes = (
(145,0,l),
(142,83,o),
(141,128,o),
(141,176,cs),
(141,225,o),
(177,233,o),
(303,233,cs),
(429,233,o),
(465,224,o),
(465,176,cs),
(465,111,o),
(465,78,o),
(460,0,c),
(551,0,l),
(548,62,o),
(547,195,o),
(547,356,cs),
(547,477,o),
(460,516,o),
(358,516,cs),
(288,516,o),
(241,497,o),
(210,468,cs),
(170,430,o),
(166,410,o),
(152,410,c),
(138,410,o),
(137,417,o),
(141,500,c),
(54,500,l),
(59,267,o),
(59,233,o),
(54,0,c)
);
}
);
width = 597;
},
{
anchors = (
{
name = bottom;
pos = (294,0);
},
{
name = top;
pos = (294,480);
}
);
background = {
shapes = (
{
closed = 1;
nodes = (
(107,0,l),
(105,66,o),
(105,80,o),
(105,254,cs),
(105,381,o),
(184,459,o),
(313,459,cs),
(435,459,o),
(491,401,o),
(491,275,cs),
(491,189,o),
(489,104,o),
(486,0,c),
(515,0,l),
(513,103,o),
(513,161,o),
(513,296,cs),
(513,426,o),
(449,496,o),
(329,496,cs),
(209,496,o),
(117,429,o),
(105,333,c),
(105,418,o),
(107,447,o),
(107,480,c),
(78,480,l),
(81,246,o),
(81,221,o),
(78,0,c)
);
}
);
};
layerId = "60D037D9-62E9-4843-B070-F1594CB0B0D1";
shapes = (
{
closed = 1;
nodes = (
(115,0,l),
(112,143,o),
(111,231,o),
(111,327,cs),
(111,388,o),
(197,459,o),
(334,459,cs),
(436,459,o),
(482,417,o),
(482,328,cs),
(482,205,o),
(481,135,o),
(476,0,c),
(505,0,l),
(503,58,o),
(502,167,o),
(502,356,cs),
(502,419,o),
(484,496,o),
(341,496,cs),
(276,496,o),
(214,477,o),
(185,454,cs),
(163,437,o),
(135,408,o),
(124,408,cs),
(117,408,o),
(115,420,o),
(115,480,c),
(86,480,l),
(91,256,o),
(91,224,o),
(86,0,c)
);
}
);
width = 583;
}
);
},
{
color = 9;
glyphname = t.001;
layers = (
{
anchors = (
{
name = bottom;
pos = (251,0);
},
{
name = center;
pos = (251,250);
},
{
name = top;
pos = (251,500);
},
{
name = topright;
pos = (408,650);
}
);
background = {
shapes = (
{
closed = 1;
nodes = (
(342,-10,o),
(400,5,o),
(435,27,c),
(435,227,l),
(400,208,o),
(331,188,o),
(263,188,cs),
(148,188,o),
(121,215,o),
(120,265,c),
(122,484,l),
(125,630,l),
(45,630,l),
(45,484,l),
(43,277,l),
(29,56,o),
(123,-10,o),
(263,-10,cs)
);
},
{
closed = 1;
nodes = (
(61,500,l),
(-32,500,l),
(-32,290,l),
(58,289,l)
);
},
{
closed = 1;
nodes = (
(465,290,l),
(465,500,l),
(106,500,l),
(105,290,l)
);
}
);
};
layerId = m01;
shapes = (
{
closed = 1;
nodes = (
(377,224,o),
(346,210,o),
(300,210,cs),
(238,210,o),
(213,250,o),
(212,274,c),
(214,424,l),
(217,634,l),
(137,634,l),
(137,273,l),
(59,77,o),
(164,-1,o),
(255,-1,cs),
(324,-1,o),
(361,9,o),
(387,25,c),
(390,232,l)
);
},
{
closed = 1;
nodes = (
(44,274,l),
(403,274,l),
(403,498,l),
(44,498,l)
);
}
);
width = 396;
},
{
anchors = (
{
name = bottom;
pos = (240,0);
},
{
name = center;
pos = (240,240);
},
{
name = top;
pos = (240,480);
},
{
name = topright;
pos = (464,800);
}
);
layerId = "60D037D9-62E9-4843-B070-F1594CB0B0D1";
shapes = (
{
closed = 1;
nodes = (
(343,-10,o),
(384,-2,o),
(421,17,c),
(421,53,l),
(383,37,o),
(359,26,o),
(291,26,cs),
(232,26,o),
(123,68,o),
(125,225,c),
(125,484,l),
(127,654,l),
(100,654,l),
(101,484,l),
(104,226,l),
(101,52,o),
(198,-10,o),
(288,-10,cs)
);
},
{
closed = 1;
nodes = (
(117,496,l),
(24,496,l),
(24,466,l),
(114,465,l)
);
},
{
closed = 1;
nodes = (
(437,466,l),
(437,496,l),
(123,496,l),
(122,466,l)
);
}
);
width = 476;
}
);
metricLeft = "=|i";
metricRight = "=|i";
},
{
color = 4;
export = 0;
glyphname = f;
lastChange = "2023-11-14 01:49:33 +0000";
layers = (
{
background = {
shapes = (
{
closed = 1;
nodes = (
(198,129,o),
(198,206,q),
(198,250,l),
(381,250,l),
(381,540,l),
(132,540,l),
(210,517,l),
(204,528,o),
(198,532,q),
(194,536,o),
(194,541,q),
(194,554,o),
(205,565,o),
(246,570,o),
(295,570,q),
(315,570,o),
(358,566,o),
(375,562,q),
(369,777,l),
(353,781,o),
(329,784,o),
(310,784,q),
(222,784,o),
(135,719,o),
(135,634,q),
(135,594,o),
(156,531,o),
(172,520,q),
(160,540,l),
(93,540,l),
(93,250,l),
(154,250,l),
(154,195,l),
(154,99,o),
(151,0,q),
(202,0,l)
);
}
);
};
layerId = m01;
shapes = (
{
closed = 1;
nodes = (
(387,752,l),
(361,768,o),
(327,780,o),
(258,780,cs),
(175,780,o),
(58,692,o),
(130,519,cs),
(136,504,o),
(125,500,o),
(119,500,cs),
(103,500,o),
(58,500,o),
(44,500,c),
(44,274,l),
(126,274,l),
(128,0,l),
(208,0,l),
(204,274,l),
(403,274,l),
(403,500,l),
(393,500,o),
(224,500,o),
(213,500,cs),
(207,500,o),
(197,502,o),
(205,518,cs),
(218,544,o),
(249,566,o),
(300,566,cs),
(346,566,o),
(377,548,o),
(390,540,c)
);
}
);
width = 433;
},
{
background = {
shapes = (
{
pos = (24,788);
ref = t;
scale = (1,-1);
}
);
};
layerId = "60D037D9-62E9-4843-B070-F1594CB0B0D1";
shapes = (
{
closed = 1;
nodes = (
(387,752,l),
(361,768,o),
(327,780,o),
(258,780,cs),
(175,780,o),
(58,692,o),
(130,519,cs),
(136,504,o),
(125,500,o),
(119,500,cs),
(103,500,o),
(58,500,o),
(44,500,c),
(44,274,l),
(126,274,l),
(128,0,l),
(208,0,l),
(204,274,l),
(403,274,l),
(403,500,l),
(393,500,o),
(224,500,o),
(213,500,cs),
(207,500,o),
(197,502,o),
(205,518,cs),
(218,544,o),
(249,566,o),
(300,566,cs),
(346,566,o),
(377,548,o),
(390,540,c)
);
}
);
width = 437;
}
);
metricLeft = i;
unicode = 102;
},
{
color = 0;
export = 0;
glyphname = e.ss01;
lastChange = "2023-11-10 17:15:24 +0000";
layers = (
{
layerId = "60D037D9-62E9-4843-B070-F1594CB0B0D1";
shapes = (
{
closed = 1;
nodes = (
(379,-16,o),
(430,-9,o),
(476,12,c),
(477,118,l),
(441,100,o),
(367,98,o),
(326,98,cs),
(217,98,o),
(167,114,o),
(167,133,cs),
(167,148,o),
(181,158,o),
(214,158,cs),
(454,158,l),
(454,212,l),
(199,212,ls),
(171,212,o),
(151,223,o),
(151,239,cs),
(151,273,o),
(230,285,o),
(326,285,cs),
(370,285,o),
(438,285,o),
(477,265,c),
(477,486,l),
(432,509,o),
(376,516,o),
(326,516,cs),
(145,516,o),
(62,431,o),
(62,246,cs),
(62,66,o),
(145,-16,o),
(326,-16,cs)
);
}
);
width = 626;
},
{
background = {
shapes = (
{
closed = 1;
nodes = (
(412,-12,o),
(453,-6,o),
(503,0,c),
(503,150,l),
(491,134,o),
(387,108,o),
(299,108,cs),
(234,108,o),
(174,122,o),
(143,147,cs),
(132,156,o),
(126,165,o),
(126,172,cs),
(126,176,o),
(128,179,o),
(133,179,cs),
(143,179,o),
(160,168,o),
(169,164,cs),
(202,149,o),
(246,143,o),
(301,143,cs),
(390,143,o),
(453,159,o),
(491,192,cs),
(524,220,o),
(540,262,o),
(540,318,cs),
(540,448,o),
(456,516,o),
(292,516,cs),
(115,516,o),
(36,437,o),
(36,262,cs),
(36,149,o),
(69,49,o),
(180,8,cs),
(231,-11,o),
(300,-16,o),
(353,-14,cs)
);
},
{
closed = 1;
nodes = (
(174,197,o),
(121,210,o),
(121,239,cs),
(121,269,o),
(175,279,o),
(286,279,cs),
(413,279,o),
(469,266,o),
(469,238,cs),
(469,210,o),
(416,197,o),
(295,197,cs)
);
}
);
};
layerId = m01;
shapes = (
{
closed = 1;
nodes = (
(360,-16,o),
(418,-9,o),
(470,12,c),
(471,118,l),
(430,100,o),
(346,98,o),
(300,98,cs),
(191,98,o),
(141,114,o),
(141,133,cs),
(141,148,o),
(155,158,o),
(188,158,cs),
(428,158,l),
(428,212,l),
(173,212,ls),
(145,212,o),
(125,223,o),
(125,239,cs),
(125,258,o),
(157,265,o),
(300,265,cs),
(344,265,o),
(433,263,o),
(471,245,c),
(471,486,l),
(421,509,o),
(357,516,o),
(300,516,cs),
(119,516,o),
(36,431,o),
(36,246,cs),
(36,66,o),
(119,-16,o),
(300,-16,cs)
);
}
);
width = 501;
}
);
metricLeft = o;
},
{
color = 1;
export = 0;
glyphname = x.001;
lastChange = "2023-11-10 16:38:14 +0000";
layers = (
{
background = {
shapes = (
{
closed = 1;
nodes = (
(425,130,ls),
(499,130,o),
(509,138,o),
(532,239,cs),
(592,500,l),
(510,500,l),
(497,445,ls),
(487,405,o),
(481,404,o),
(361,404,cs),
(263,404,ls),
(143,404,o),
(137,405,o),
(127,445,cs),
(114,500,l),
(32,500,l),
(92,239,ls),
(115,138,o),
(125,130,o),
(199,130,cs)
);
},
{
closed = 1;
nodes = (
(391,87,ls),
(452,87,o),
(457,85,o),
(473,59,cs),
(510,0,l),
(592,0,l),
(532,99,ls),
(509,137,o),
(499,140,o),
(425,140,cs),
(199,140,ls),
(125,140,o),
(115,137,o),
(92,99,cs),
(32,0,l),
(114,0,l),
(151,59,ls),
(167,85,o),
(172,87,o),
(233,87,cs)
);
}
);
};
layerId = m01;
shapes = (
{
closed = 1;
nodes = (
(124,0,l),
(137,55,ls),
(152,112,o),
(159,116,o),
(312,116,cs),
(491,116,o),
(502,113,o),
(517,55,cs),
(530,0,l),
(612,0,l),
(532,231,ls),
(522,260,o),
(519,279,o),
(519,291,cs),
(519,303,o),
(531,326,o),
(552,371,cs),
(612,500,l),
(500,500,l),
(463,441,ls),
(431,391,o),
(429,383,o),
(312,383,cs),
(172,383,o),
(164,388,o),
(131,441,cs),
(94,500,l),
(12,500,l),
(72,371,ls),
(93,326,o),
(105,303,o),
(105,291,cs),
(105,279,o),
(102,260,o),
(92,231,cs),
(12,0,l)
);
}
);
width = 624;
},
{
anchors = (
{
name = bottom;
pos = (300,0);
},
{
name = top;
pos = (300,480);
}
);
layerId = "60D037D9-62E9-4843-B070-F1594CB0B0D1";
width = 600;
}
);
},
{
color = 0;
glyphname = period;
lastChange = "2023-11-10 16:38:14 +0000";
layers = (
{
layerId = m01;
shapes = (
{
closed = 1;
nodes = (
(256,-13,o),
(287,5,o),
(287,56,cs),
(287,109,o),
(256,128,o),
(166,128,cs),
(76,128,o),
(45,109,o),
(45,56,cs),
(45,5,o),
(76,-13,o),
(166,-13,cs)
);
}
);
width = 332;
},
{
layerId = "60D037D9-62E9-4843-B070-F1594CB0B0D1";
shapes = (
{
closed = 1;
nodes = (
(255,-17,o),
(289,0,o),
(289,32,cs),
(289,57,o),
(255,71,o),
(190,71,cs),
(125,71,o),
(90,57,o),
(90,32,cs),
(90,0,o),
(125,-17,o),
(190,-17,cs)
);
}
);
width = 379;
}
);
unicode = 46;
},
{
color = 0;
glyphname = comma;
lastChange = "2023-11-10 16:38:14 +0000";
layers = (
{
layerId = m01;
shapes = (
{
closed = 1;
nodes = (
(220,-117,o),
(276,-66,o),
(276,11,cs),
(276,54,o),
(263,86,o),
(245,106,c),
(77,106,l),
(93,86,o),
(110,48,o),
(110,11,cs),
(110,-31,o),
(87,-41,o),
(55,-54,c),
(45,-123,l)
);
}
);
width = 321;
},
{
layerId = "60D037D9-62E9-4843-B070-F1594CB0B0D1";
shapes = (
{
closed = 1;
nodes = (
(197,-166,o),
(265,-116,o),
(265,-33,cs),
(265,16,o),
(259,50,o),
(246,80,c),
(171,80,l),
(195,34,o),
(201,13,o),
(201,-30,cs),
(201,-93,o),
(153,-140,o),
(91,-139,c),
(90,-164,l)
);
}
);
width = 355;
}
);
metricLeft = period;
metricRight = period;
unicode = 44;
},
{
color = 0;
glyphname = exclam;
lastChange = "2023-11-10 16:38:14 +0000";
layers = (
{
layerId = "60D037D9-62E9-4843-B070-F1594CB0B0D1";
shapes = (
{
closed = 1;
nodes = (
(197,162,l),
(197,382,o),
(201,443,o),
(226,700,c),
(153,700,l),
(172,503,o),
(176,407,o),
(176,162,c)
);
},
{
ref = period;
}
);
width = 379;
},
{
layerId = m01;
shapes = (
{
closed = 1;
nodes = (
(265,206,l),
(255,410,o),
(273,525,o),
(296,702,c),
(45,702,l),
(71,518,o),
(81,413,o),
(74,206,c)
);
},
{
pos = (4,0);
ref = period;
}
);
width = 341;
}
);
metricLeft = period;
metricRight = period;
unicode = 33;
},
{
export = 0;
glyphname = dotaccentcomb;
lastChange = "2023-11-10 18:13:28 +0000";
layers = (
{
anchors = (
{
name = _top;
pos = (81,500);
},
{
name = top;
pos = (81,682);
}
);
layerId = "60D037D9-62E9-4843-B070-F1594CB0B0D1";
shapes = (
{
closed = 1;
nodes = (
(111,571,o),
(136,595,o),
(136,627,cs),
(136,657,o),
(111,682,o),
(81,682,cs),
(50,682,o),
(25,657,o),
(25,627,cs),
(25,595,o),
(50,571,o),
(81,571,cs)
);
}
);
width = 161;
},
{
anchors = (
{
name = _top;
pos = (102,500);
},
{
name = top;
pos = (102,712);
}
);
layerId = m01;
shapes = (
{
closed = 1;
nodes = (
(144,559,o),
(178,593,o),
(178,636,cs),
(178,678,o),
(144,712,o),
(102,712,cs),
(59,712,o),
(25,678,o),
(25,636,cs),
(25,593,o),
(59,559,o),
(102,559,cs)
);
}
);
width = 203;
}
);
unicode = 775;
},
